<svg version="1.1" xmlns="http://www.w3.org/2000/svg" viewBox="0 0 464.66035129498687 686" width="464.66035129498687" height="686">
  <!-- svg-source:excalidraw -->

  <defs>
    <style class="style-fonts">
      @font-face {
        font-family: "Virgil";
        src: url("https://excalidraw.com/Virgil.woff2");
      }
      @font-face {
        font-family: "Cascadia";
        src: url("https://excalidraw.com/Cascadia.woff2");
      }
    </style>
  </defs>
  <rect x="0" y="0" width="464.66035129498687" height="686" fill="#ffffff"></rect><g transform="translate(373.34751263786734 24) rotate(0 10.66668701171875 47.66667175292969)" stroke="none"><path fill="#000000" d="M 1.64,-0.49 Q 1.64,-0.49 2.19,1.42 2.75,3.35 3.91,7.64 5.07,11.93 6.88,18.35 8.70,24.77 11.19,33.44 13.68,42.11 15.69,51.40 17.71,60.70 19.14,68.68 20.57,76.66 21.18,81.81 21.78,86.95 21.63,89.93 21.47,92.90 20.36,93.35 19.25,93.79 17.47,92.98 15.70,92.17 15.48,91.98 15.27,91.78 15.13,91.53 14.98,91.28 14.93,91.00 14.87,90.71 14.91,90.43 14.95,90.14 15.08,89.88 15.21,89.62 15.41,89.41 15.62,89.21 15.88,89.08 16.13,88.95 16.42,88.91 16.71,88.87 16.99,88.93 17.28,88.98 17.53,89.12 17.78,89.27 17.97,89.48 18.17,89.70 18.28,89.96 18.40,90.23 18.42,90.52 18.45,90.81 18.38,91.09 18.31,91.37 18.15,91.61 17.99,91.86 17.77,92.04 17.54,92.22 17.27,92.32 17.00,92.42 16.71,92.43 16.42,92.43 16.14,92.35 15.87,92.27 15.63,92.10 15.40,91.93 15.23,91.69 15.06,91.46 14.97,91.18 14.89,90.90 14.90,90.62 14.90,90.33 15.00,90.05 15.10,89.78 15.28,89.56 15.47,89.33 15.71,89.17 15.95,89.02 16.23,88.95 16.52,88.88 16.80,88.90 17.09,88.92 17.36,89.04 17.62,89.15 17.62,89.15 17.62,89.15 19.02,89.96 20.42,90.77 19.75,89.02 19.07,87.28 18.46,82.21 17.84,77.15 16.40,69.23 14.95,61.30 12.92,52.11 10.89,42.92 8.35,34.26 5.81,25.60 3.92,19.19 2.03,12.78 0.79,8.55 -0.45,4.31 -1.04,2.40 -1.64,0.49 -1.68,0.28 -1.71,0.08 -1.70,-0.12 -1.68,-0.32 -1.62,-0.52 -1.56,-0.72 -1.45,-0.89 -1.34,-1.07 -1.19,-1.22 -1.04,-1.36 -0.86,-1.47 -0.68,-1.57 -0.49,-1.63 -0.29,-1.69 -0.08,-1.70 0.12,-1.71 0.32,-1.67 0.52,-1.63 0.71,-1.54 0.90,-1.46 1.06,-1.33 1.22,-1.20 1.35,-1.03 1.48,-0.87 1.56,-0.68 1.64,-0.49 1.64,-0.49 L 1.64,-0.49 Z"></path></g><g transform="translate(380.68088666130484 18) rotate(0 32 18)" stroke="none"><path fill="#000000" d="M -1.03,-1.16 Q -1.03,-1.16 0.72,-2.68 2.48,-4.20 6.52,-5.73 10.55,-7.25 16.76,-7.88 22.97,-8.50 29.96,-7.01 36.95,-5.51 43.08,-2.12 49.22,1.26 53.24,5.48 57.26,9.70 59.59,13.91 61.91,18.13 61.92,22.15 61.94,26.17 59.30,29.39 56.67,32.61 51.99,35.32 47.32,38.02 42.61,39.73 37.91,41.44 33.99,42.55 30.08,43.65 28.21,44.17 26.35,44.69 24.67,44.59 22.98,44.50 21.79,43.77 20.60,43.03 19.65,42.23 18.70,41.42 16.80,41.27 14.91,41.11 12.74,41.06 10.56,41.01 10.19,40.93 9.82,40.85 9.49,40.66 9.16,40.47 8.91,40.18 8.67,39.90 8.52,39.54 8.38,39.19 8.35,38.82 8.33,38.44 8.42,38.07 8.52,37.70 8.73,37.39 8.94,37.07 9.24,36.84 9.54,36.60 9.90,36.48 10.25,36.35 10.63,36.35 11.01,36.34 11.37,36.46 11.74,36.58 12.04,36.80 12.35,37.03 12.56,37.34 12.78,37.65 12.89,38.02 12.99,38.38 12.98,38.76 12.96,39.14 12.82,39.49 12.69,39.85 12.44,40.14 12.20,40.43 11.88,40.63 11.56,40.83 11.19,40.92 10.82,41.00 10.44,40.97 10.06,40.93 9.71,40.77 9.37,40.62 9.09,40.36 8.81,40.10 8.63,39.77 8.45,39.44 8.38,39.06 8.32,38.69 8.37,38.31 8.43,37.94 8.60,37.60 8.78,37.26 9.05,37.00 9.32,36.74 9.66,36.57 10.01,36.41 10.38,36.36 10.76,36.32 10.76,36.32 10.76,36.32 13.11,36.49 15.46,36.67 16.89,36.91 18.33,37.16 19.81,37.79 21.29,38.42 22.14,39.32 22.99,40.22 24.36,41.08 25.74,41.93 27.55,41.52 29.36,41.11 33.19,40.03 37.01,38.96 41.51,37.34 46.01,35.71 50.36,33.28 54.70,30.84 57.07,28.29 59.43,25.74 59.47,22.50 59.52,19.26 57.40,15.40 55.29,11.54 51.57,7.58 47.86,3.62 42.10,0.39 36.33,-2.82 29.77,-4.26 23.21,-5.70 17.37,-5.12 11.54,-4.54 7.97,-3.23 4.41,-1.93 2.72,-0.38 1.03,1.16 0.88,1.27 0.72,1.38 0.55,1.44 0.37,1.51 0.18,1.53 0.00,1.56 -0.18,1.53 -0.37,1.51 -0.54,1.45 -0.72,1.38 -0.87,1.27 -1.03,1.17 -1.15,1.03 -1.28,0.88 -1.37,0.72 -1.45,0.55 -1.50,0.37 -1.55,0.19 -1.55,0.00 -1.55,-0.18 -1.50,-0.36 -1.46,-0.55 -1.37,-0.71 -1.28,-0.88 -1.16,-1.02 -1.03,-1.16 -1.03,-1.16 L -1.03,-1.16 Z"></path></g><g transform="translate(408.68088666130484 156) rotate(0 -2 77.66668701171875)" stroke="none"><path fill="#000000" d="M 1.56,0 Q 1.56,0 1.52,4.79 1.49,9.58 1.46,16.79 1.44,24.00 1.42,33.97 1.40,43.93 1.39,55.64 1.38,67.35 1.37,78.84 1.36,90.34 1.35,100.21 1.34,110.07 0.96,117.94 0.57,125.81 0.21,132.02 -0.14,138.23 -0.88,142.48 -1.61,146.72 -1.92,149.04 -2.23,151.36 -2.33,153.43 -2.43,155.50 -2.50,155.75 -2.57,155.99 -2.71,156.20 -2.85,156.41 -3.06,156.57 -3.26,156.72 -3.50,156.80 -3.74,156.88 -4.00,156.88 -4.25,156.88 -4.49,156.80 -4.73,156.72 -4.94,156.56 -5.14,156.41 -5.28,156.20 -5.42,155.99 -5.49,155.74 -5.56,155.50 -5.55,155.24 -5.53,154.99 -5.44,154.75 -5.34,154.51 -5.18,154.32 -5.01,154.13 -4.79,154.00 -4.58,153.87 -4.33,153.81 -4.08,153.76 -3.82,153.78 -3.57,153.81 -3.34,153.92 -3.11,154.03 -2.93,154.20 -2.74,154.38 -2.62,154.60 -2.50,154.83 -2.46,155.08 -2.42,155.33 -2.46,155.58 -2.50,155.83 -2.62,156.06 -2.74,156.28 -2.93,156.46 -3.11,156.63 -3.35,156.74 -3.58,156.85 -3.83,156.87 -4.08,156.90 -4.33,156.84 -4.58,156.79 -4.80,156.66 -5.02,156.53 -5.18,156.33 -5.34,156.14 -5.44,155.90 -5.53,155.66 -5.55,155.41 -5.56,155.16 -5.56,155.16 -5.56,155.16 -5.21,153.09 -4.85,151.02 -4.54,148.64 -4.23,146.27 -3.52,142.17 -2.80,138.08 -2.45,131.88 -2.10,125.68 -1.72,117.88 -1.34,110.07 -1.35,100.21 -1.36,90.34 -1.37,78.84 -1.38,67.35 -1.39,55.64 -1.40,43.93 -1.42,33.97 -1.44,24.00 -1.46,16.79 -1.49,9.58 -1.52,4.79 -1.56,0 -1.53,-0.18 -1.51,-0.37 -1.45,-0.54 -1.38,-0.72 -1.27,-0.88 -1.16,-1.03 -1.02,-1.16 -0.88,-1.28 -0.72,-1.37 -0.55,-1.46 -0.37,-1.50 -0.18,-1.55 0.00,-1.55 0.18,-1.55 0.37,-1.50 0.55,-1.46 0.72,-1.37 0.88,-1.28 1.02,-1.16 1.16,-1.03 1.27,-0.88 1.38,-0.72 1.45,-0.54 1.51,-0.37 1.53,-0.18 1.56,0.00 1.56,0.00 L 1.56,0 Z"></path></g><g transform="translate(388.01413861442984 296.66668701171875) rotate(0 19 17)" stroke="none"><path fill="#000000" d="M 1.56,-0.99 Q 1.56,-0.99 2.84,1.15 4.12,3.29 5.99,6.33 7.85,9.36 10.14,12.53 12.42,15.71 14.58,19.24 16.73,22.77 18.04,25.25 19.34,27.73 20.14,29.34 20.94,30.94 22.72,28.68 24.50,26.42 26.10,24.32 27.70,22.21 28.72,20.28 29.74,18.35 30.57,16.39 31.40,14.43 31.64,12.91 31.89,11.39 31.96,9.98 32.03,8.57 32.93,6.83 33.83,5.09 35.54,3.31 37.24,1.52 37.55,1.45 37.86,1.38 38.17,1.41 38.49,1.43 38.78,1.56 39.06,1.69 39.30,1.90 39.53,2.12 39.69,2.39 39.84,2.67 39.89,2.98 39.95,3.29 39.91,3.61 39.86,3.92 39.72,4.20 39.57,4.49 39.35,4.71 39.12,4.93 38.84,5.07 38.55,5.20 38.24,5.24 37.92,5.28 37.61,5.22 37.30,5.16 37.03,5.00 36.75,4.84 36.54,4.60 36.34,4.37 36.21,4.07 36.09,3.78 36.07,3.47 36.05,3.15 36.13,2.84 36.21,2.54 36.38,2.27 36.55,2.01 36.80,1.81 37.05,1.62 37.35,1.51 37.65,1.40 37.96,1.40 38.28,1.39 38.58,1.49 38.88,1.58 39.14,1.77 39.39,1.96 39.57,2.22 39.76,2.48 39.85,2.78 39.94,3.08 39.92,3.40 39.91,3.72 39.80,4.01 39.69,4.31 39.49,4.55 39.29,4.80 39.02,4.97 38.75,5.13 38.75,5.13 38.75,5.13 37.89,6.07 37.04,7.00 36.28,8.04 35.52,9.07 35.29,10.57 35.06,12.08 34.60,13.81 34.15,15.55 33.32,17.65 32.50,19.74 31.42,21.94 30.35,24.13 28.83,26.32 27.32,28.51 25.81,30.63 24.30,32.74 23.05,33.55 21.80,34.35 19.99,33.32 18.19,32.29 17.50,30.68 16.82,29.07 15.53,26.69 14.24,24.31 12.10,20.91 9.97,17.51 7.56,14.29 5.15,11.08 3.19,8.10 1.24,5.13 -0.16,3.06 -1.56,0.99 -1.66,0.79 -1.75,0.59 -1.80,0.37 -1.84,0.15 -1.84,-0.06 -1.83,-0.29 -1.77,-0.50 -1.70,-0.72 -1.59,-0.91 -1.48,-1.11 -1.33,-1.27 -1.17,-1.43 -0.98,-1.55 -0.79,-1.67 -0.58,-1.74 -0.37,-1.81 -0.15,-1.83 0.06,-1.85 0.29,-1.81 0.51,-1.78 0.71,-1.69 0.92,-1.60 1.10,-1.47 1.28,-1.34 1.42,-1.16 1.56,-0.99 1.56,-0.99 L 1.56,-0.99 Z"></path></g><g transform="translate(410.68088666130484 368.66668701171875) rotate(0 5.6666259765625 32.333343505859375)" stroke="none"><path fill="#000000" d="M 1.70,-0.85 Q 1.70,-0.85 4.13,4.16 6.55,9.18 8.36,14.89 10.18,20.59 10.95,26.56 11.71,32.53 12.02,37.93 12.32,43.33 12.44,46.58 12.56,49.82 12.60,52.17 12.64,54.51 12.76,56.08 12.88,57.65 12.97,59.09 13.07,60.53 13.17,62.59 13.28,64.65 13.23,64.97 13.18,65.28 13.03,65.56 12.88,65.84 12.66,66.05 12.43,66.27 12.14,66.40 11.86,66.54 11.54,66.57 11.23,66.61 10.92,66.54 10.61,66.48 10.34,66.31 10.07,66.15 9.87,65.91 9.66,65.67 9.54,65.38 9.43,65.09 9.41,64.77 9.39,64.46 9.47,64.15 9.56,63.85 9.73,63.59 9.91,63.33 10.16,63.13 10.41,62.94 10.71,62.84 11.01,62.74 11.32,62.74 11.64,62.74 11.94,62.84 12.23,62.94 12.49,63.13 12.74,63.32 12.92,63.58 13.09,63.84 13.18,64.14 13.27,64.44 13.25,64.76 13.23,65.07 13.12,65.37 13.00,65.66 12.80,65.90 12.60,66.14 12.33,66.31 12.06,66.47 11.75,66.54 11.44,66.61 11.13,66.57 10.81,66.54 10.53,66.41 10.24,66.28 10.01,66.06 9.78,65.85 9.63,65.57 9.48,65.29 9.43,64.98 9.38,64.67 9.38,64.67 9.38,64.67 9.47,62.61 9.55,60.56 9.63,59.13 9.71,57.71 9.77,56.15 9.84,54.58 9.76,52.27 9.69,49.95 9.52,46.73 9.36,43.52 9.01,38.22 8.65,32.93 7.86,27.27 7.08,21.60 5.24,16.17 3.41,10.74 0.85,5.80 -1.70,0.85 -1.78,0.63 -1.86,0.42 -1.88,0.19 -1.91,-0.03 -1.87,-0.26 -1.84,-0.49 -1.76,-0.70 -1.67,-0.92 -1.54,-1.10 -1.40,-1.29 -1.23,-1.44 -1.05,-1.59 -0.84,-1.69 -0.64,-1.80 -0.41,-1.85 -0.19,-1.90 0.03,-1.89 0.26,-1.89 0.49,-1.83 0.71,-1.77 0.91,-1.66 1.11,-1.55 1.28,-1.39 1.45,-1.23 1.58,-1.04 1.70,-0.85 1.70,-0.85 L 1.70,-0.85 Z"></path></g><g transform="translate(412.01413861442984 370.66668701171875) rotate(0 -21 41)" stroke="none"><path fill="#000000" d="M 1.57,0.29 Q 1.57,0.29 0.95,3.35 0.34,6.42 -1.51,10.56 -3.36,14.70 -6.70,19.38 -10.03,24.07 -14.12,29.46 -18.21,34.86 -22.00,41.67 -25.79,48.47 -29.51,56.71 -33.23,64.96 -35.40,70.00 -37.56,75.05 -39.16,78.78 -40.77,82.52 -40.88,82.70 -41.00,82.88 -41.17,83.02 -41.34,83.16 -41.54,83.23 -41.74,83.31 -41.96,83.31 -42.17,83.32 -42.38,83.26 -42.59,83.19 -42.76,83.07 -42.94,82.94 -43.06,82.77 -43.19,82.59 -43.25,82.38 -43.32,82.18 -43.31,81.96 -43.31,81.75 -43.23,81.54 -43.16,81.34 -43.02,81.17 -42.89,81.00 -42.71,80.89 -42.53,80.77 -42.32,80.72 -42.11,80.66 -41.89,80.68 -41.68,80.70 -41.48,80.78 -41.28,80.87 -41.12,81.01 -40.96,81.16 -40.85,81.34 -40.74,81.53 -40.70,81.74 -40.66,81.96 -40.69,82.17 -40.72,82.38 -40.81,82.58 -40.91,82.77 -41.06,82.93 -41.21,83.08 -41.41,83.17 -41.60,83.27 -41.81,83.30 -42.03,83.33 -42.24,83.29 -42.45,83.25 -42.64,83.14 -42.83,83.04 -42.97,82.88 -43.12,82.72 -43.20,82.52 -43.29,82.32 -43.31,82.10 -43.33,81.89 -43.27,81.68 -43.22,81.47 -43.22,81.47 -43.22,81.47 -41.63,77.73 -40.03,73.99 -37.87,68.91 -35.70,63.84 -31.95,55.49 -28.19,47.14 -24.31,40.16 -20.44,33.19 -16.40,27.80 -12.36,22.42 -9.20,17.96 -6.04,13.50 -4.34,9.67 -2.64,5.84 -2.10,2.77 -1.57,-0.29 -1.51,-0.47 -1.45,-0.66 -1.35,-0.82 -1.25,-0.99 -1.11,-1.12 -0.98,-1.26 -0.81,-1.36 -0.65,-1.46 -0.46,-1.51 -0.28,-1.57 -0.08,-1.58 0.10,-1.59 0.29,-1.56 0.48,-1.52 0.65,-1.44 0.83,-1.36 0.98,-1.24 1.13,-1.12 1.25,-0.97 1.37,-0.82 1.45,-0.64 1.53,-0.46 1.56,-0.27 1.59,-0.08 1.58,0.10 1.57,0.29 1.57,0.29 L 1.57,0.29 Z"></path></g><g transform="translate(394.68088666130484 412.66668701171875) rotate(0 20 -1)" stroke="none"><path fill="#000000" d="M -0.32,-1.96 Q -0.32,-1.96 3.13,-2.45 6.60,-2.93 14.13,-3.12 21.66,-3.31 26.35,-3.36 31.04,-3.42 35.25,-2.82 39.47,-2.23 39.70,-2.06 39.93,-1.89 40.09,-1.65 40.25,-1.42 40.33,-1.15 40.41,-0.87 40.40,-0.59 40.39,-0.30 40.28,-0.04 40.18,0.22 40.00,0.44 39.82,0.66 39.57,0.81 39.33,0.96 39.05,1.02 38.78,1.09 38.49,1.06 38.21,1.03 37.95,0.91 37.69,0.80 37.48,0.60 37.27,0.41 37.14,0.16 37.00,-0.08 36.95,-0.36 36.90,-0.64 36.94,-0.92 36.99,-1.21 37.12,-1.46 37.25,-1.71 37.45,-1.91 37.66,-2.11 37.91,-2.23 38.17,-2.35 38.45,-2.39 38.74,-2.42 39.02,-2.36 39.30,-2.30 39.54,-2.16 39.79,-2.02 39.97,-1.80 40.16,-1.59 40.27,-1.32 40.38,-1.06 40.40,-0.77 40.41,-0.49 40.34,-0.22 40.27,0.05 40.11,0.29 39.95,0.53 39.73,0.70 39.50,0.88 39.23,0.97 38.97,1.06 38.68,1.07 38.40,1.07 38.12,0.98 37.85,0.89 37.85,0.89 37.85,0.89 34.48,0.31 31.11,-0.26 26.44,-0.11 21.77,0.03 14.48,0.33 7.19,0.63 3.76,1.30 0.32,1.96 0.08,1.97 -0.15,1.98 -0.38,1.94 -0.62,1.89 -0.84,1.79 -1.05,1.68 -1.24,1.53 -1.43,1.38 -1.57,1.19 -1.72,1.00 -1.81,0.78 -1.91,0.56 -1.95,0.32 -1.99,0.08 -1.97,-0.15 -1.95,-0.39 -1.87,-0.61 -1.80,-0.84 -1.67,-1.05 -1.54,-1.25 -1.37,-1.42 -1.20,-1.58 -0.99,-1.71 -0.78,-1.83 -0.55,-1.89 -0.32,-1.96 -0.32,-1.96 L -0.32,-1.96 Z"></path></g><g transform="translate(319.34751263786734 123.33334350585938) rotate(0 -85 83.33332824707031)" stroke="none"><path fill="#000000" d="M 1.21,0.97 Q 1.21,0.97 -1.87,4.78 -4.96,8.60 -11.14,14.50 -17.32,20.40 -27.05,28.46 -36.78,36.52 -49.15,46.64 -61.52,56.76 -77.27,72.13 -93.03,87.51 -105.30,99.80 -117.57,112.09 -126.80,121.72 -136.04,131.34 -142.83,138.69 -149.63,146.03 -154.04,151.06 -158.46,156.08 -161.31,159.19 -164.16,162.30 -165.55,163.83 -166.94,165.35 -167.89,166.53 -168.85,167.72 -169.05,167.87 -169.25,168.03 -169.49,168.11 -169.73,168.19 -169.98,168.20 -170.23,168.20 -170.47,168.12 -170.71,168.04 -170.91,167.89 -171.11,167.74 -171.26,167.54 -171.40,167.33 -171.47,167.09 -171.54,166.85 -171.53,166.60 -171.52,166.34 -171.43,166.11 -171.34,165.87 -171.18,165.68 -171.02,165.49 -170.80,165.36 -170.59,165.22 -170.34,165.17 -170.10,165.11 -169.85,165.13 -169.60,165.16 -169.37,165.26 -169.14,165.36 -168.95,165.54 -168.77,165.71 -168.65,165.93 -168.53,166.15 -168.48,166.40 -168.44,166.64 -168.48,166.89 -168.52,167.14 -168.63,167.37 -168.75,167.59 -168.93,167.76 -169.11,167.94 -169.33,168.05 -169.56,168.16 -169.81,168.19 -170.06,168.22 -170.31,168.16 -170.55,168.11 -170.77,167.99 -170.99,167.86 -171.15,167.67 -171.32,167.48 -171.41,167.25 -171.51,167.01 -171.53,166.76 -171.54,166.51 -171.48,166.27 -171.41,166.02 -171.28,165.81 -171.14,165.60 -171.14,165.60 -171.14,165.60 -170.03,164.56 -168.92,163.51 -167.51,162.01 -166.11,160.52 -163.28,157.42 -160.45,154.33 -156.02,149.28 -151.58,144.22 -144.78,136.85 -137.97,129.49 -128.72,119.84 -119.48,110.19 -107.21,97.87 -94.93,85.56 -79.10,70.09 -63.27,54.62 -50.93,44.49 -38.58,34.36 -28.95,26.33 -19.32,18.31 -13.31,12.52 -7.29,6.73 -4.25,2.87 -1.21,-0.97 -1.08,-1.10 -0.95,-1.23 -0.78,-1.33 -0.62,-1.43 -0.44,-1.48 -0.26,-1.53 -0.07,-1.54 0.11,-1.55 0.29,-1.52 0.47,-1.48 0.65,-1.40 0.82,-1.32 0.96,-1.21 1.11,-1.09 1.23,-0.94 1.34,-0.79 1.42,-0.62 1.49,-0.44 1.52,-0.26 1.56,-0.07 1.54,0.10 1.53,0.29 1.47,0.47 1.41,0.65 1.31,0.81 1.21,0.97 1.21,0.97 L 1.21,0.97 Z"></path></g><g transform="translate(138.68088666130484 272.66668701171875) rotate(0 24.999969482421875 20.333343505859375)" stroke="none"><path fill="#000000" d="M 1.78,0 Q 1.78,0 1.71,2.87 1.65,5.75 1.60,9.84 1.56,13.94 0.94,18.84 0.33,23.73 0.06,27.84 -0.19,31.94 -0.31,34.27 -0.43,36.60 -0.36,37.79 -0.28,38.98 -0.32,39.18 -0.35,39.37 -0.43,39.56 -0.51,39.74 -0.63,39.90 -0.75,40.05 -0.90,40.18 -1.05,40.30 -1.23,40.39 -1.41,40.47 -1.61,40.51 -1.80,40.55 -2.00,40.54 -2.20,40.53 -2.39,40.48 -2.58,40.42 -2.75,40.32 -2.93,40.22 -3.07,40.08 -3.21,39.95 -3.32,39.78 -3.42,39.61 -3.48,39.42 -3.55,39.23 -3.56,39.03 -3.58,38.84 -2.05,37.82 -0.51,36.80 2.18,35.10 4.89,33.39 9.90,31.43 14.91,29.46 20.93,28.06 26.94,26.65 32.09,25.13 37.25,23.61 41.18,22.39 45.10,21.17 48.26,19.84 51.42,18.51 51.68,18.46 51.93,18.41 52.18,18.44 52.44,18.47 52.67,18.58 52.90,18.69 53.09,18.87 53.27,19.05 53.39,19.28 53.51,19.51 53.54,19.76 53.58,20.01 53.54,20.27 53.49,20.52 53.37,20.75 53.25,20.97 53.06,21.15 52.87,21.32 52.64,21.43 52.40,21.53 52.15,21.56 51.89,21.58 51.64,21.52 51.39,21.46 51.17,21.33 50.95,21.19 50.79,20.99 50.62,20.80 50.53,20.56 50.44,20.32 50.43,20.06 50.42,19.80 50.49,19.56 50.56,19.31 50.71,19.10 50.86,18.89 51.06,18.74 51.27,18.58 51.51,18.50 51.76,18.42 52.01,18.43 52.27,18.43 52.51,18.52 52.76,18.60 52.96,18.76 53.16,18.92 53.30,19.13 53.44,19.35 53.51,19.59 53.58,19.84 53.56,20.10 53.54,20.36 53.44,20.59 53.35,20.83 53.18,21.02 53.01,21.22 52.79,21.35 52.56,21.48 52.56,21.48 52.57,21.48 49.25,22.64 45.93,23.80 41.99,25.05 38.06,26.30 32.83,27.88 27.60,29.46 21.81,30.85 16.01,32.24 11.28,34.13 6.55,36.03 3.13,37.51 -0.28,38.98 -0.32,39.18 -0.35,39.37 -0.43,39.56 -0.51,39.74 -0.63,39.90 -0.75,40.05 -0.90,40.18 -1.05,40.30 -1.23,40.39 -1.41,40.47 -1.61,40.51 -1.80,40.55 -2.00,40.54 -2.20,40.53 -2.39,40.48 -2.58,40.42 -2.75,40.32 -2.93,40.22 -3.07,40.08 -3.21,39.95 -3.32,39.78 -3.42,39.61 -3.48,39.42 -3.55,39.23 -3.56,39.03 -3.58,38.84 -3.41,37.65 -3.25,36.47 -3.16,34.12 -3.08,31.77 -2.85,27.57 -2.63,23.38 -2.09,18.66 -1.56,13.94 -1.60,9.84 -1.65,5.75 -1.71,2.87 -1.78,0 -1.75,-0.21 -1.73,-0.42 -1.65,-0.62 -1.57,-0.82 -1.45,-1.00 -1.33,-1.18 -1.17,-1.32 -1.01,-1.46 -0.82,-1.56 -0.63,-1.66 -0.42,-1.71 -0.21,-1.76 0.00,-1.76 0.21,-1.76 0.42,-1.71 0.63,-1.66 0.82,-1.56 1.01,-1.46 1.17,-1.32 1.33,-1.18 1.45,-1.00 1.57,-0.82 1.65,-0.62 1.73,-0.42 1.75,-0.21 1.78,0.00 1.78,0.00 L 1.78,0 Z"></path></g><g transform="translate(138.68088666130484 352.66668701171875) rotate(0 -25.00006103515625 24.333328247070312)" stroke="none"><path fill="#000000" d="M -0.64,1.44 Q -0.64,1.44 -2.37,0.69 -4.10,-0.05 -6.54,-1.18 -8.97,-2.31 -11.92,-2.74 -14.88,-3.18 -19.14,-3.01 -23.40,-2.84 -28.53,-1.09 -33.66,0.64 -38.62,4.18 -43.58,7.71 -46.76,12.53 -49.93,17.35 -51.66,22.55 -53.39,27.75 -52.80,33.38 -52.22,39.00 -49.64,42.36 -47.06,45.71 -41.93,47.66 -36.80,49.60 -29.69,50.47 -22.58,51.34 -15.55,51.34 -8.52,51.34 -4.29,50.60 -0.06,49.85 1.73,48.48 3.53,47.11 4.78,45.17 6.03,43.22 6.19,43.03 6.34,42.85 6.55,42.72 6.76,42.59 7.00,42.54 7.24,42.49 7.48,42.51 7.73,42.54 7.95,42.64 8.17,42.74 8.35,42.91 8.53,43.07 8.64,43.29 8.76,43.51 8.80,43.75 8.84,43.99 8.80,44.23 8.76,44.47 8.65,44.69 8.54,44.90 8.36,45.07 8.18,45.24 7.96,45.35 7.74,45.45 7.50,45.48 7.25,45.51 7.01,45.45 6.78,45.40 6.56,45.28 6.35,45.15 6.20,44.97 6.04,44.78 5.94,44.55 5.85,44.33 5.84,44.08 5.82,43.84 5.89,43.60 5.95,43.37 6.09,43.16 6.23,42.96 6.42,42.81 6.61,42.66 6.85,42.58 7.08,42.50 7.32,42.50 7.57,42.50 7.80,42.58 8.03,42.66 8.23,42.80 8.42,42.95 8.56,43.15 8.70,43.35 8.76,43.59 8.83,43.82 8.82,44.07 8.81,44.31 8.72,44.54 8.63,44.77 8.63,44.77 8.63,44.77 6.85,47.00 5.08,49.24 2.78,50.82 0.49,52.40 -4.00,53.19 -8.51,53.98 -15.71,53.97 -22.90,53.97 -30.33,53.02 -37.76,52.07 -43.39,49.75 -49.02,47.43 -51.91,43.44 -54.81,39.46 -55.38,33.22 -55.95,26.99 -54.08,21.43 -52.20,15.86 -48.71,10.69 -45.22,5.51 -39.90,1.76 -34.59,-1.98 -29.07,-3.84 -23.56,-5.70 -19.01,-5.90 -14.46,-6.10 -11.10,-5.61 -7.75,-5.12 -5.27,-4.06 -2.79,-3.01 -1.07,-2.22 0.64,-1.44 0.80,-1.34 0.96,-1.24 1.10,-1.11 1.24,-0.98 1.34,-0.81 1.43,-0.65 1.49,-0.47 1.55,-0.29 1.56,-0.10 1.57,0.08 1.54,0.27 1.51,0.46 1.43,0.63 1.35,0.81 1.24,0.96 1.12,1.11 0.97,1.23 0.82,1.35 0.65,1.42 0.47,1.50 0.29,1.54 0.10,1.57 -0.08,1.56 -0.27,1.55 -0.46,1.50 -0.64,1.44 -0.64,1.44 L -0.64,1.44 Z"></path></g><g transform="translate(112.68082562614859 448.66668701171875) rotate(0 1.666656494140625 62.333343505859375)" stroke="none"><path fill="#000000" d="M 1.55,-0.16 Q 1.55,-0.16 2.09,5.40 2.63,10.96 2.85,18.74 3.08,26.52 3.16,36.34 3.25,46.16 3.28,55.69 3.31,65.23 2.75,73.55 2.18,81.86 1.94,88.23 1.69,94.60 1.59,99.60 1.48,104.61 2.01,108.36 2.53,112.11 2.76,114.94 2.98,117.76 3.33,119.46 3.68,121.15 4.30,122.64 4.92,124.13 4.97,124.40 5.01,124.67 4.96,124.93 4.92,125.20 4.79,125.44 4.66,125.68 4.47,125.87 4.27,126.06 4.02,126.17 3.77,126.28 3.50,126.31 3.23,126.34 2.97,126.28 2.70,126.22 2.47,126.08 2.24,125.94 2.06,125.73 1.89,125.52 1.79,125.27 1.69,125.02 1.67,124.75 1.66,124.48 1.73,124.21 1.80,123.95 1.96,123.73 2.11,123.50 2.33,123.34 2.54,123.17 2.80,123.09 3.06,123.00 3.33,123.00 3.60,123.00 3.86,123.09 4.12,123.18 4.34,123.34 4.55,123.51 4.70,123.73 4.86,123.96 4.93,124.22 5.00,124.48 4.98,124.76 4.97,125.03 4.87,125.28 4.77,125.53 4.59,125.74 4.41,125.95 4.18,126.09 3.95,126.23 3.68,126.28 3.41,126.34 3.14,126.31 2.87,126.28 2.63,126.17 2.38,126.05 2.18,125.86 1.99,125.68 1.86,125.43 1.73,125.19 1.73,125.19 1.73,125.19 1.26,123.41 0.79,121.63 0.56,119.81 0.34,117.98 0.11,115.23 -0.10,112.48 -0.64,108.52 -1.19,104.56 -1.09,99.53 -0.99,94.50 -0.76,88.09 -0.53,81.68 0.00,73.46 0.55,65.24 0.49,55.72 0.43,46.19 0.31,36.40 0.19,26.62 -0.07,18.94 -0.33,11.27 -0.94,5.71 -1.55,0.16 -1.55,-0.02 -1.54,-0.21 -1.49,-0.39 -1.45,-0.57 -1.36,-0.74 -1.26,-0.91 -1.14,-1.04 -1.01,-1.18 -0.85,-1.29 -0.70,-1.39 -0.52,-1.45 -0.34,-1.52 -0.15,-1.54 0.02,-1.56 0.21,-1.53 0.40,-1.50 0.57,-1.43 0.75,-1.37 0.90,-1.26 1.05,-1.15 1.17,-1.00 1.30,-0.86 1.38,-0.69 1.47,-0.52 1.51,-0.34 1.55,-0.16 1.55,-0.16 L 1.55,-0.16 Z"></path></g><g transform="translate(92.68082562614859 560.6666870117188) rotate(0 17 10)" stroke="none"><path fill="#000000" d="M 1.74,0 Q 1.74,0 1.77,1.72 1.80,3.44 2.29,6.11 2.78,8.79 3.87,11.16 4.96,13.53 6.43,14.99 7.90,16.46 9.36,16.97 10.82,17.49 12.16,17.66 13.50,17.84 15.29,17.98 17.08,18.13 18.90,17.16 20.72,16.19 22.51,14.87 24.29,13.55 25.57,12.25 26.86,10.94 27.70,9.37 28.54,7.80 30.68,5.25 32.82,2.71 33.06,2.55 33.29,2.40 33.57,2.33 33.84,2.26 34.12,2.28 34.40,2.30 34.66,2.41 34.92,2.52 35.13,2.71 35.34,2.89 35.48,3.14 35.63,3.38 35.68,3.66 35.74,3.93 35.70,4.21 35.66,4.49 35.54,4.75 35.42,5.00 35.22,5.20 35.02,5.40 34.77,5.53 34.52,5.66 34.24,5.70 33.96,5.74 33.68,5.69 33.41,5.64 33.16,5.50 32.91,5.36 32.72,5.15 32.53,4.95 32.42,4.69 32.31,4.43 32.28,4.15 32.26,3.87 32.32,3.59 32.39,3.32 32.54,3.08 32.69,2.84 32.91,2.66 33.12,2.49 33.39,2.39 33.65,2.29 33.93,2.28 34.22,2.27 34.49,2.35 34.76,2.43 34.99,2.59 35.22,2.75 35.38,2.98 35.55,3.21 35.63,3.48 35.72,3.75 35.71,4.03 35.71,4.31 35.61,4.57 35.52,4.84 35.34,5.06 35.17,5.28 35.17,5.28 35.17,5.28 33.21,7.30 31.25,9.32 30.16,11.21 29.07,13.11 27.60,14.54 26.13,15.98 24.15,17.51 22.16,19.04 19.63,20.26 17.10,21.48 14.95,21.37 12.80,21.26 11.20,20.84 9.59,20.42 7.72,19.53 5.84,18.63 3.99,16.78 2.14,14.92 0.83,12.20 -0.48,9.47 -1.14,6.46 -1.80,3.45 -1.77,1.72 -1.74,0 -1.72,-0.20 -1.69,-0.41 -1.62,-0.61 -1.54,-0.81 -1.42,-0.98 -1.30,-1.15 -1.15,-1.29 -0.99,-1.43 -0.80,-1.53 -0.61,-1.63 -0.41,-1.68 -0.21,-1.73 0.00,-1.73 0.21,-1.73 0.41,-1.68 0.61,-1.63 0.80,-1.53 0.99,-1.43 1.15,-1.29 1.30,-1.15 1.42,-0.98 1.54,-0.81 1.62,-0.61 1.69,-0.41 1.72,-0.20 1.74,0.00 1.74,0.00 L 1.74,0 Z"></path></g><g transform="translate(114.68082562614859 610.6666870117188) rotate(0 -1.33331298828125 25.333343505859375)" stroke="none"><path fill="#000000" d="M 0.74,1.37 Q 0.74,1.37 -1.37,2.49 -3.50,3.61 -6.48,5.40 -9.47,7.19 -13.63,9.68 -17.80,12.17 -21.79,15.27 -25.79,18.38 -28.15,21.87 -30.51,25.35 -31.49,28.57 -32.47,31.79 -31.45,34.77 -30.43,37.76 -26.56,40.26 -22.69,42.76 -12.17,44.62 -1.65,46.47 6.88,47.30 15.42,48.12 20.39,48.47 25.37,48.82 25.74,47.66 26.10,46.49 26.28,46.53 26.46,46.56 26.62,46.64 26.79,46.72 26.93,46.83 27.07,46.94 27.18,47.09 27.29,47.23 27.36,47.40 27.44,47.56 27.47,47.74 27.50,47.92 27.48,48.10 27.47,48.28 27.42,48.45 27.36,48.63 27.26,48.78 27.17,48.93 27.04,49.06 26.91,49.19 26.75,49.28 26.60,49.37 26.42,49.42 26.25,49.48 26.07,49.49 25.89,49.50 25.27,49.08 24.65,48.66 24.57,48.43 24.50,48.19 24.51,47.95 24.52,47.71 24.60,47.48 24.69,47.25 24.84,47.06 25.00,46.87 25.20,46.74 25.41,46.61 25.64,46.55 25.88,46.50 26.12,46.52 26.36,46.54 26.59,46.63 26.81,46.73 26.99,46.89 27.17,47.06 27.29,47.27 27.41,47.48 27.45,47.72 27.50,47.96 27.46,48.20 27.43,48.44 27.32,48.66 27.21,48.88 27.04,49.05 26.87,49.22 26.65,49.33 26.43,49.43 26.19,49.47 25.95,49.50 25.71,49.45 25.47,49.40 25.26,49.28 25.05,49.16 24.89,48.98 24.72,48.80 24.63,48.58 24.53,48.35 24.52,48.11 24.50,47.87 24.56,47.63 24.62,47.40 24.75,47.19 24.88,46.99 25.07,46.83 25.26,46.68 25.49,46.60 25.72,46.52 25.96,46.51 26.20,46.51 26.44,46.58 26.67,46.65 26.87,46.79 27.06,46.94 26.58,46.72 26.10,46.49 26.28,46.53 26.46,46.56 26.62,46.64 26.79,46.72 26.93,46.83 27.07,46.94 27.18,47.09 27.29,47.23 27.36,47.40 27.44,47.56 27.47,47.74 27.50,47.92 27.48,48.10 27.47,48.28 27.42,48.45 27.36,48.63 27.26,48.78 27.17,48.93 27.04,49.06 26.91,49.19 26.75,49.28 26.60,49.37 26.42,49.42 26.25,49.48 26.07,49.49 25.89,49.50 25.54,50.48 25.19,51.46 20.17,51.11 15.16,50.75 6.51,49.92 -2.13,49.09 -13.11,47.04 -24.10,45.00 -28.43,41.94 -32.76,38.87 -33.91,35.08 -35.05,31.29 -33.91,27.57 -32.78,23.85 -30.15,20.04 -27.52,16.23 -23.39,12.99 -19.25,9.76 -15.11,7.24 -10.97,4.72 -7.95,2.85 -4.93,0.98 -2.84,-0.19 -0.74,-1.37 -0.57,-1.44 -0.39,-1.51 -0.21,-1.53 -0.02,-1.56 0.16,-1.54 0.34,-1.52 0.52,-1.45 0.70,-1.39 0.86,-1.29 1.01,-1.18 1.14,-1.04 1.27,-0.90 1.36,-0.74 1.45,-0.57 1.49,-0.39 1.54,-0.21 1.55,-0.02 1.55,0.16 1.51,0.34 1.46,0.53 1.38,0.69 1.29,0.86 1.17,1.00 1.05,1.15 0.90,1.26 0.74,1.37 0.74,1.37 L 0.74,1.37 Z"></path></g><g transform="translate(153.34751263786734 657.3333740234375) rotate(0 9.66668701171875 5.33331298828125)" stroke="none"><path fill="#000000" d="M 1.64,-0.73 Q 1.64,-0.73 3.30,3.12 4.97,6.98 6.04,9.59 7.12,12.21 8.12,13.53 9.12,14.86 9.65,15.62 10.18,16.38 10.28,16.57 10.39,16.77 10.45,16.99 10.50,17.20 10.50,17.43 10.51,17.65 10.46,17.86 10.40,18.08 10.30,18.28 10.20,18.48 10.06,18.65 9.91,18.82 9.73,18.94 9.55,19.07 9.34,19.15 9.13,19.24 8.91,19.27 8.69,19.29 8.47,19.27 8.25,19.25 8.04,19.17 7.83,19.09 7.64,18.97 7.46,18.84 7.31,18.68 7.16,18.51 7.50,16.93 7.85,15.35 7.92,13.73 8.00,12.11 8.73,9.42 9.45,6.72 10.57,4.01 11.68,1.30 12.75,-0.80 13.82,-2.92 14.12,-4.13 14.42,-5.34 16.29,-7.52 18.17,-9.69 18.47,-9.83 18.77,-9.97 19.10,-10.01 19.43,-10.05 19.76,-9.98 20.08,-9.91 20.37,-9.74 20.65,-9.56 20.87,-9.31 21.09,-9.06 21.21,-8.75 21.33,-8.44 21.35,-8.11 21.37,-7.78 21.28,-7.46 21.20,-7.14 21.01,-6.86 20.82,-6.59 20.56,-6.39 20.30,-6.18 19.98,-6.08 19.67,-5.97 19.33,-5.97 19.00,-5.97 18.69,-6.07 18.37,-6.18 18.11,-6.38 17.84,-6.58 17.65,-6.85 17.47,-7.13 17.38,-7.45 17.29,-7.77 17.30,-8.10 17.32,-8.43 17.44,-8.74 17.56,-9.05 17.78,-9.30 17.99,-9.56 18.28,-9.73 18.56,-9.90 18.89,-9.97 19.21,-10.05 19.54,-10.01 19.87,-9.98 20.17,-9.84 20.48,-9.70 20.72,-9.47 20.96,-9.24 21.12,-8.95 21.27,-8.66 21.33,-8.33 21.38,-8.00 21.33,-7.67 21.28,-7.34 21.12,-7.05 20.97,-6.76 20.73,-6.53 20.49,-6.30 20.49,-6.30 20.49,-6.30 19.06,-5.27 17.63,-4.24 17.06,-2.93 16.49,-1.61 15.53,0.41 14.57,2.45 13.60,4.99 12.63,7.53 12.07,9.97 11.51,12.41 10.84,14.39 10.18,16.38 10.28,16.57 10.39,16.77 10.45,16.99 10.50,17.20 10.50,17.42 10.51,17.65 10.46,17.86 10.40,18.08 10.30,18.28 10.20,18.48 10.06,18.65 9.91,18.82 9.73,18.94 9.55,19.07 9.34,19.15 9.13,19.24 8.91,19.27 8.69,19.29 8.47,19.27 8.25,19.25 8.04,19.17 7.83,19.09 7.64,18.97 7.46,18.84 7.31,18.68 7.16,18.51 6.80,17.63 6.44,16.75 5.34,15.11 4.24,13.47 3.08,10.91 1.92,8.35 0.14,4.54 -1.64,0.73 -1.70,0.53 -1.77,0.32 -1.78,0.10 -1.79,-0.10 -1.75,-0.32 -1.72,-0.53 -1.63,-0.73 -1.54,-0.93 -1.40,-1.10 -1.27,-1.27 -1.10,-1.40 -0.93,-1.54 -0.73,-1.63 -0.53,-1.72 -0.32,-1.75 -0.10,-1.79 0.10,-1.78 0.32,-1.77 0.53,-1.70 0.73,-1.64 0.92,-1.53 1.11,-1.41 1.26,-1.26 1.41,-1.11 1.53,-0.92 1.64,-0.73 1.64,-0.73 L 1.64,-0.73 Z"></path></g><g transform="translate(36.66666666666674 603.3976260914523) rotate(0 -5.185173882378535 -97.03704833984375)" stroke="none"><path fill="#000000" d="M -1.53,0.30 Q -1.53,0.30 -2.13,-2.89 -2.74,-6.09 -4.66,-11.17 -6.57,-16.25 -9.52,-23.56 -12.47,-30.87 -16.06,-40.17 -19.66,-49.47 -22.07,-61.20 -24.47,-72.93 -25.49,-90.31 -26.51,-107.70 -24.80,-122.41 -23.09,-137.11 -18.71,-148.80 -14.32,-160.48 -8.35,-168.72 -2.37,-176.96 2.08,-181.94 6.55,-186.92 9.11,-189.28 11.68,-191.63 13.54,-193.34 15.40,-195.04 15.58,-195.16 15.76,-195.27 15.96,-195.33 16.17,-195.38 16.38,-195.37 16.60,-195.35 16.79,-195.27 16.99,-195.19 17.15,-195.05 17.31,-194.91 17.42,-194.72 17.52,-194.54 17.57,-194.33 17.61,-194.12 17.58,-193.91 17.56,-193.70 17.46,-193.50 17.37,-193.31 17.22,-193.16 17.07,-193.01 16.88,-192.91 16.69,-192.81 16.48,-192.78 16.27,-192.75 16.06,-192.79 15.85,-192.83 15.66,-192.93 15.48,-193.03 15.33,-193.19 15.19,-193.35 15.10,-193.54 15.02,-193.74 15.00,-193.95 14.98,-194.16 15.03,-194.37 15.07,-194.58 15.19,-194.76 15.30,-194.94 15.47,-195.07 15.63,-195.21 15.83,-195.29 16.03,-195.36 16.24,-195.37 16.46,-195.38 16.66,-195.32 16.86,-195.26 17.04,-195.13 17.21,-195.01 17.34,-194.84 17.47,-194.67 17.53,-194.46 17.60,-194.26 17.59,-194.05 17.59,-193.83 17.52,-193.63 17.45,-193.43 17.31,-193.26 17.18,-193.10 17.18,-193.10 17.18,-193.10 15.32,-191.39 13.46,-189.68 10.99,-187.42 8.52,-185.16 4.14,-180.28 -0.22,-175.40 -6.03,-167.46 -11.84,-159.52 -16.14,-148.15 -20.44,-136.78 -22.13,-122.32 -23.82,-107.85 -22.81,-90.66 -21.80,-73.47 -19.44,-61.97 -17.08,-50.47 -13.47,-41.20 -9.86,-31.93 -6.86,-24.60 -3.87,-17.28 -1.84,-11.98 0.18,-6.68 0.85,-3.49 1.53,-0.30 1.54,-0.11 1.56,0.06 1.52,0.25 1.49,0.44 1.42,0.61 1.34,0.78 1.23,0.93 1.12,1.08 0.97,1.20 0.82,1.32 0.65,1.40 0.48,1.48 0.30,1.52 0.11,1.55 -0.06,1.54 -0.25,1.54 -0.43,1.48 -0.61,1.43 -0.78,1.33 -0.94,1.24 -1.07,1.11 -1.21,0.98 -1.31,0.82 -1.41,0.66 -1.47,0.48 -1.53,0.30 -1.53,0.30 L -1.53,0.30 Z"></path></g><g transform="translate(36.66666666666674 404.1383894378064) rotate(0 13.703715006510379 8.518507215711793)" stroke="none"><path fill="#000000" d="M -0.54,-2.19 Q -0.54,-2.19 2.02,-2.70 4.59,-3.21 6.96,-4.57 9.32,-5.94 11.57,-6.99 13.82,-8.05 15.67,-8.76 17.52,-9.47 19.85,-10.21 22.18,-10.94 23.99,-10.47 25.80,-10.00 27.51,-8.58 29.22,-7.17 29.49,-5.42 29.77,-3.67 29.79,-1.96 29.81,-0.25 29.47,2.05 29.12,4.37 28.48,6.89 27.84,9.42 27.34,11.88 26.83,14.35 26.38,17.09 25.92,19.83 25.74,21.81 25.55,23.79 25.50,25.30 25.45,26.81 25.38,27.08 25.31,27.36 25.16,27.60 25.01,27.84 24.79,28.02 24.56,28.20 24.30,28.29 24.03,28.39 23.74,28.40 23.46,28.41 23.19,28.32 22.91,28.24 22.68,28.07 22.45,27.90 22.29,27.67 22.12,27.44 22.04,27.17 21.95,26.90 21.96,26.61 21.97,26.33 22.07,26.06 22.17,25.79 22.35,25.57 22.52,25.35 22.77,25.20 23.01,25.04 23.28,24.98 23.56,24.91 23.84,24.93 24.13,24.95 24.39,25.07 24.65,25.18 24.86,25.37 25.07,25.56 25.21,25.81 25.35,26.06 25.41,26.34 25.46,26.62 25.42,26.90 25.38,27.18 25.25,27.44 25.13,27.69 24.93,27.89 24.72,28.09 24.47,28.22 24.21,28.35 23.93,28.38 23.65,28.42 23.37,28.37 23.09,28.31 22.84,28.17 22.59,28.03 22.40,27.82 22.21,27.61 22.10,27.35 21.99,27.08 21.97,26.80 21.94,26.52 21.94,26.52 21.94,26.52 22.14,25.02 22.34,23.53 22.49,21.45 22.64,19.36 22.98,16.56 23.31,13.75 23.66,11.18 24.01,8.61 24.39,6.30 24.76,3.99 24.80,1.95 24.83,-0.08 24.95,-2.62 25.07,-5.15 23.93,-5.76 22.79,-6.36 21.80,-6.77 20.82,-7.18 19.77,-6.74 18.72,-6.30 17.03,-5.67 15.34,-5.03 13.27,-3.92 11.20,-2.81 8.41,-1.07 5.62,0.66 3.08,1.42 0.54,2.19 0.27,2.22 0.00,2.26 -0.26,2.22 -0.53,2.19 -0.78,2.10 -1.04,2.00 -1.26,1.85 -1.49,1.69 -1.67,1.49 -1.85,1.29 -1.98,1.04 -2.11,0.80 -2.17,0.54 -2.24,0.27 -2.24,0.00 -2.24,-0.26 -2.18,-0.52 -2.11,-0.79 -1.99,-1.03 -1.86,-1.27 -1.68,-1.48 -1.50,-1.68 -1.28,-1.84 -1.05,-1.99 -0.80,-2.09 -0.54,-2.19 -0.54,-2.19 L -0.54,-2.19 Z"></path></g><g transform="translate(454.66035129498687 203.30822551746098) rotate(0 -1.092102277011577 10.37512161132338)" stroke="none"><path fill="#000000" d="M 2.03,0 Q 2.03,0 1.93,2.66 1.84,5.33 1.45,8.29 1.06,11.24 0.71,13.56 0.37,15.88 -0.01,18.49 -0.40,21.09 -0.51,21.36 -0.61,21.64 -0.79,21.86 -0.97,22.09 -1.22,22.25 -1.47,22.41 -1.75,22.48 -2.03,22.55 -2.33,22.52 -2.62,22.50 -2.89,22.38 -3.15,22.27 -3.37,22.07 -3.59,21.88 -3.73,21.62 -3.88,21.37 -3.93,21.08 -3.99,20.79 -3.95,20.50 -3.91,20.21 -3.78,19.95 -3.65,19.69 -3.44,19.48 -3.23,19.28 -2.97,19.15 -2.71,19.02 -2.42,18.98 -2.13,18.94 -1.84,18.99 -1.55,19.05 -1.30,19.19 -1.05,19.34 -0.85,19.56 -0.66,19.77 -0.54,20.04 -0.42,20.31 -0.40,20.60 -0.38,20.89 -0.45,21.18 -0.52,21.46 -0.68,21.71 -0.83,21.95 -1.06,22.14 -1.29,22.32 -1.57,22.42 -1.84,22.52 -2.13,22.53 -2.43,22.54 -2.70,22.45 -2.98,22.36 -3.22,22.19 -3.46,22.02 -3.63,21.78 -3.80,21.55 -3.89,21.27 -3.97,20.99 -3.96,20.69 -3.95,20.40 -3.95,20.40 -3.95,20.40 -3.37,17.94 -2.79,15.49 -2.55,13.18 -2.31,10.87 -2.07,8.10 -1.84,5.33 -1.93,2.66 -2.03,0 -2.00,-0.24 -1.97,-0.48 -1.88,-0.71 -1.80,-0.94 -1.66,-1.14 -1.52,-1.34 -1.33,-1.51 -1.15,-1.67 -0.93,-1.78 -0.72,-1.90 -0.48,-1.96 -0.24,-2.01 0.00,-2.01 0.24,-2.01 0.48,-1.96 0.72,-1.90 0.93,-1.78 1.15,-1.67 1.33,-1.51 1.52,-1.34 1.66,-1.14 1.80,-0.94 1.88,-0.71 1.97,-0.48 2.00,-0.24 2.03,0.00 2.03,0.00 L 2.03,0 Z"></path></g><g transform="translate(181.63063260335616 377.50121333902916) rotate(0 76.99441036702302 9.556032405255252)" stroke="none"><path fill="#000000" d="M 0.28,-1.68 Q 0.28,-1.68 4.98,-0.84 9.68,-0.00 17.43,0.83 25.19,1.66 36.02,2.50 46.85,3.34 61.54,4.96 76.22,6.59 92.04,8.70 107.86,10.81 119.76,12.34 131.65,13.87 138.15,14.99 144.65,16.12 148.30,17.00 151.96,17.88 152.13,18.03 152.31,18.17 152.43,18.36 152.55,18.56 152.61,18.78 152.66,19.00 152.64,19.23 152.62,19.46 152.53,19.67 152.44,19.87 152.29,20.04 152.13,20.21 151.93,20.32 151.73,20.44 151.51,20.48 151.28,20.52 151.06,20.49 150.83,20.46 150.63,20.35 150.42,20.25 150.26,20.09 150.10,19.92 150.00,19.72 149.90,19.51 149.87,19.29 149.84,19.06 149.89,18.84 149.93,18.61 150.04,18.41 150.16,18.22 150.33,18.06 150.50,17.91 150.71,17.82 150.92,17.73 151.15,17.72 151.38,17.70 151.60,17.76 151.82,17.81 152.01,17.94 152.20,18.06 152.35,18.24 152.49,18.42 152.57,18.63 152.64,18.85 152.65,19.08 152.65,19.31 152.58,19.52 152.52,19.74 152.38,19.93 152.25,20.11 152.06,20.24 151.87,20.38 151.65,20.44 151.44,20.51 151.21,20.50 150.98,20.49 150.76,20.41 150.55,20.33 150.55,20.33 150.55,20.33 147.37,19.56 144.19,18.79 137.75,17.69 131.31,16.59 119.40,15.08 107.50,13.57 91.71,11.49 75.91,9.42 61.27,7.84 46.64,6.26 35.76,5.47 24.88,4.69 17.02,3.91 9.15,3.14 4.43,2.41 -0.28,1.68 -0.47,1.62 -0.67,1.56 -0.85,1.46 -1.02,1.35 -1.17,1.21 -1.32,1.07 -1.43,0.89 -1.54,0.72 -1.60,0.52 -1.67,0.33 -1.68,0.12 -1.70,-0.07 -1.66,-0.27 -1.63,-0.48 -1.55,-0.66 -1.47,-0.85 -1.34,-1.02 -1.22,-1.18 -1.06,-1.31 -0.90,-1.44 -0.71,-1.53 -0.53,-1.61 -0.33,-1.65 -0.13,-1.69 0.07,-1.68 0.28,-1.68 0.28,-1.68 L 0.28,-1.68 Z"></path></g><g transform="translate(326.8824351483587 387.8763099537337) rotate(0 2.457317611442022 5.733624442476895)" stroke="none"><path fill="#000000" d="M 0.18,-1.89 Q 0.18,-1.89 1.76,-1.77 3.33,-1.65 5.35,-1.51 7.36,-1.37 9.66,-0.78 11.96,-0.19 13.20,-0.06 14.44,0.07 15.60,1.59 16.77,3.12 16.45,4.23 16.13,5.34 13.87,7.03 11.61,8.72 8.50,9.85 5.38,10.98 2.13,11.58 -1.10,12.18 -3.60,12.40 -6.09,12.63 -8.43,12.93 -10.77,13.24 -11.06,13.22 -11.34,13.19 -11.61,13.08 -11.87,12.97 -12.09,12.77 -12.30,12.58 -12.45,12.33 -12.59,12.08 -12.64,11.80 -12.70,11.51 -12.66,11.23 -12.62,10.94 -12.49,10.68 -12.37,10.42 -12.16,10.22 -11.96,10.01 -11.70,9.89 -11.44,9.76 -11.16,9.72 -10.87,9.68 -10.59,9.73 -10.30,9.79 -10.05,9.93 -9.80,10.07 -9.61,10.28 -9.41,10.50 -9.30,10.76 -9.19,11.03 -9.16,11.32 -9.14,11.60 -9.21,11.88 -9.28,12.16 -9.43,12.41 -9.59,12.65 -9.81,12.83 -10.04,13.01 -10.31,13.11 -10.58,13.21 -10.87,13.22 -11.15,13.23 -11.43,13.15 -11.71,13.06 -11.94,12.89 -12.18,12.73 -12.34,12.49 -12.51,12.26 -12.60,11.98 -12.68,11.71 -12.68,11.42 -12.67,11.13 -12.57,10.86 -12.47,10.59 -12.29,10.36 -12.11,10.14 -11.87,9.98 -11.62,9.82 -11.34,9.75 -11.06,9.68 -11.06,9.68 -11.06,9.68 -8.74,9.60 -6.42,9.52 -4.09,9.22 -1.75,8.93 1.18,8.29 4.12,7.65 6.70,6.61 9.29,5.58 11.45,4.62 13.61,3.66 12.40,3.37 11.19,3.08 9.21,2.67 7.23,2.26 5.08,2.27 2.94,2.27 1.37,2.08 -0.18,1.89 -0.41,1.84 -0.63,1.79 -0.84,1.69 -1.04,1.58 -1.22,1.44 -1.39,1.29 -1.53,1.10 -1.66,0.92 -1.75,0.70 -1.83,0.49 -1.87,0.26 -1.90,0.04 -1.88,-0.18 -1.85,-0.41 -1.78,-0.63 -1.70,-0.84 -1.57,-1.04 -1.45,-1.23 -1.28,-1.38 -1.11,-1.54 -0.91,-1.65 -0.71,-1.76 -0.49,-1.82 -0.26,-1.88 -0.03,-1.88 0.18,-1.89 0.18,-1.89 L 0.18,-1.89 Z"></path></g><g transform="translate(244.97351454154563 333.27039621135015) rotate(0 -8.736943199187067 16.38175912474378)" stroke="none"><path fill="#000000" d="M 0.10,1.95 Q 0.10,1.95 -2.72,2.02 -5.55,2.09 -8.03,2.10 -10.52,2.10 -12.51,2.12 -14.51,2.13 -15.83,2.24 -17.16,2.34 -15.89,4.57 -14.62,6.79 -14.03,9.46 -13.44,12.13 -13.05,14.88 -12.66,17.63 -12.51,19.93 -12.36,22.23 -12.26,24.15 -12.16,26.08 -12.04,27.34 -11.91,28.61 -9.40,29.29 -6.89,29.97 -4.39,30.30 -1.89,30.64 0.35,31.02 2.59,31.40 2.88,31.51 3.18,31.63 3.42,31.83 3.66,32.03 3.83,32.30 3.99,32.57 4.06,32.88 4.13,33.19 4.09,33.50 4.06,33.82 3.93,34.11 3.80,34.39 3.58,34.62 3.37,34.85 3.09,35.00 2.81,35.15 2.50,35.20 2.19,35.26 1.88,35.21 1.56,35.16 1.28,35.01 1.00,34.86 0.79,34.64 0.57,34.41 0.43,34.12 0.30,33.83 0.27,33.52 0.23,33.21 0.30,32.90 0.36,32.59 0.52,32.32 0.69,32.05 0.93,31.84 1.17,31.64 1.46,31.52 1.75,31.40 2.07,31.38 2.38,31.36 2.69,31.45 2.99,31.53 3.25,31.71 3.52,31.88 3.71,32.13 3.90,32.38 4.00,32.68 4.10,32.98 4.11,33.30 4.11,33.61 4.01,33.91 3.91,34.21 3.72,34.46 3.53,34.72 3.27,34.89 3.01,35.07 2.70,35.16 2.40,35.24 2.08,35.23 1.77,35.21 1.77,35.21 1.77,35.21 -0.23,34.68 -2.24,34.14 -4.76,33.97 -7.28,33.80 -9.93,33.53 -12.59,33.26 -13.67,32.27 -14.76,31.28 -15.12,30.03 -15.48,28.77 -15.42,27.49 -15.36,26.21 -15.42,24.35 -15.47,22.49 -15.70,20.33 -15.92,18.16 -16.40,15.58 -16.88,13.01 -17.60,10.52 -18.32,8.04 -19.22,5.73 -20.12,3.42 -20.38,2.00 -20.64,0.58 -18.91,-0.35 -17.17,-1.28 -15.86,-1.20 -14.56,-1.12 -12.58,-1.16 -10.61,-1.21 -8.18,-1.33 -5.75,-1.46 -2.92,-1.71 -0.10,-1.95 0.12,-1.94 0.36,-1.92 0.58,-1.85 0.81,-1.78 1.01,-1.65 1.21,-1.53 1.38,-1.36 1.54,-1.20 1.66,-0.99 1.79,-0.79 1.85,-0.56 1.92,-0.34 1.94,-0.10 1.95,0.12 1.91,0.36 1.86,0.59 1.76,0.80 1.67,1.02 1.52,1.20 1.37,1.39 1.19,1.53 1.00,1.68 0.78,1.77 0.57,1.87 0.34,1.91 0.10,1.95 0.10,1.95 L 0.10,1.95 Z"></path></g><g transform="translate(259.17109410888503 342.55339054904306) rotate(0 1.0921022770116053 9.829070472817563)" stroke="none"><path fill="#000000" d="M 1.99,-0.53 Q 1.99,-0.53 2.52,1.85 3.05,4.23 3.27,7.43 3.49,10.64 3.56,13.07 3.62,15.50 3.81,17.54 4.00,19.58 3.96,19.87 3.93,20.16 3.80,20.43 3.67,20.69 3.47,20.90 3.26,21.12 3.00,21.25 2.74,21.38 2.45,21.43 2.16,21.47 1.87,21.42 1.58,21.37 1.32,21.23 1.06,21.09 0.86,20.87 0.66,20.65 0.54,20.39 0.42,20.12 0.39,19.82 0.36,19.53 0.43,19.24 0.50,18.96 0.65,18.71 0.81,18.46 1.04,18.27 1.26,18.08 1.54,17.98 1.81,17.87 2.11,17.86 2.40,17.85 2.68,17.93 2.96,18.01 3.21,18.18 3.45,18.35 3.62,18.59 3.80,18.82 3.89,19.10 3.98,19.38 3.97,19.68 3.97,19.97 3.87,20.25 3.77,20.53 3.59,20.76 3.41,20.99 3.17,21.15 2.92,21.31 2.64,21.39 2.35,21.46 2.06,21.44 1.76,21.42 1.49,21.31 1.22,21.20 1.00,21.01 0.78,20.81 0.63,20.56 0.48,20.30 0.42,20.02 0.36,19.73 0.36,19.73 0.36,19.73 0.38,17.69 0.41,15.65 0.24,13.29 0.07,10.94 -0.23,8.06 -0.54,5.18 -1.27,2.85 -1.99,0.53 -2.03,0.28 -2.06,0.03 -2.03,-0.20 -2.01,-0.45 -1.93,-0.69 -1.84,-0.92 -1.70,-1.13 -1.57,-1.34 -1.38,-1.50 -1.20,-1.67 -0.98,-1.79 -0.76,-1.91 -0.52,-1.98 -0.28,-2.04 -0.03,-2.05 0.21,-2.05 0.45,-1.99 0.69,-1.94 0.91,-1.83 1.14,-1.72 1.33,-1.56 1.52,-1.39 1.66,-1.19 1.81,-0.99 1.90,-0.76 1.99,-0.53 1.99,-0.53 L 1.99,-0.53 Z"></path></g><g transform="translate(279.92138732476946 358.9351746704057) rotate(0 -4.368509094521812 4.914535236408767)" stroke="none"><path fill="#000000" d="M 2.46,0.54 Q 2.46,0.54 2.14,1.96 1.82,3.37 1.33,4.78 0.83,6.19 -0.17,7.55 -1.19,8.91 -2.23,9.74 -3.27,10.57 -5.70,11.52 -8.13,12.47 -8.57,12.50 -9.01,12.53 -9.43,12.41 -9.86,12.30 -10.22,12.05 -10.59,11.81 -10.86,11.46 -11.12,11.11 -11.27,10.70 -11.41,10.28 -11.41,9.84 -11.42,9.40 -11.28,8.99 -11.14,8.57 -10.88,8.22 -10.62,7.86 -10.25,7.62 -9.89,7.37 -9.47,7.25 -9.05,7.12 -8.61,7.15 -8.17,7.17 -7.76,7.33 -7.35,7.49 -7.01,7.77 -6.67,8.05 -6.44,8.43 -6.21,8.80 -6.12,9.23 -6.02,9.66 -6.06,10.10 -6.11,10.53 -6.29,10.93 -6.47,11.33 -6.77,11.65 -7.07,11.98 -7.46,12.18 -7.85,12.39 -8.28,12.47 -8.71,12.54 -9.15,12.47 -9.58,12.41 -9.97,12.20 -10.36,12.00 -10.67,11.68 -10.97,11.36 -11.16,10.97 -11.35,10.57 -11.40,10.13 -11.45,9.70 -11.36,9.27 -11.26,8.84 -11.04,8.46 -10.82,8.08 -10.48,7.79 -10.15,7.51 -9.74,7.34 -9.33,7.17 -9.34,7.17 -9.34,7.17 -7.82,6.72 -6.31,6.27 -5.10,5.32 -3.88,4.37 -3.48,3.32 -3.08,2.27 -2.77,0.86 -2.46,-0.54 -2.36,-0.83 -2.26,-1.12 -2.09,-1.37 -1.92,-1.63 -1.70,-1.83 -1.48,-2.04 -1.21,-2.19 -0.95,-2.34 -0.65,-2.42 -0.36,-2.50 -0.05,-2.50 0.24,-2.51 0.54,-2.44 0.84,-2.38 1.11,-2.24 1.38,-2.11 1.62,-1.91 1.85,-1.71 2.03,-1.47 2.21,-1.22 2.32,-0.94 2.43,-0.66 2.48,-0.35 2.52,-0.05 2.49,0.24 2.46,0.54 2.46,0.54 L 2.46,0.54 Z"></path></g><g transform="translate(301.7637328244278 342.55339054904306) rotate(0 13.378490361271218 6.552713648545051)" stroke="none"><path fill="#000000" d="M 0.90,-1.80 Q 0.90,-1.80 3.68,-0.30 6.47,1.19 8.49,2.51 10.51,3.84 12.13,4.83 13.76,5.82 15.08,6.48 16.40,7.14 18.05,7.31 19.71,7.49 20.93,7.49 22.15,7.50 24.10,7.60 26.04,7.71 28.05,7.66 30.07,7.61 31.16,7.33 32.24,7.05 32.56,5.14 32.88,3.22 32.06,2.19 31.25,1.16 28.74,0.95 26.24,0.74 24.43,1.04 22.61,1.35 21.30,1.95 20.00,2.56 19.08,3.26 18.15,3.97 17.56,5.01 16.96,6.05 16.90,7.93 16.84,9.80 16.65,11.23 16.46,12.66 15.90,13.99 15.35,15.32 14.26,16.22 13.17,17.13 11.85,17.46 10.54,17.80 9.17,17.89 7.81,17.97 5.60,17.20 3.39,16.43 1.64,15.59 -0.09,14.74 -1.56,13.89 -3.03,13.04 -4.04,12.36 -5.05,11.68 -6.70,9.96 -8.35,8.25 -9.56,6.56 -10.77,4.87 -11.16,2.48 -11.55,0.10 -11.49,-0.34 -11.43,-0.79 -11.24,-1.20 -11.04,-1.61 -10.72,-1.94 -10.40,-2.26 -10.00,-2.47 -9.59,-2.68 -9.14,-2.74 -8.69,-2.81 -8.24,-2.73 -7.79,-2.65 -7.39,-2.43 -6.99,-2.21 -6.68,-1.87 -6.38,-1.54 -6.19,-1.12 -6.01,-0.71 -5.96,-0.25 -5.92,0.19 -6.03,0.64 -6.13,1.08 -6.37,1.47 -6.61,1.85 -6.97,2.14 -7.32,2.43 -7.74,2.59 -8.17,2.75 -8.63,2.77 -9.08,2.79 -9.52,2.66 -9.95,2.53 -10.33,2.27 -10.70,2.01 -10.97,1.64 -11.24,1.27 -11.38,0.84 -11.52,0.41 -11.51,-0.04 -11.50,-0.49 -11.35,-0.92 -11.20,-1.35 -10.92,-1.71 -10.64,-2.07 -10.25,-2.32 -9.87,-2.57 -9.43,-2.68 -8.99,-2.80 -8.54,-2.77 -8.08,-2.74 -7.66,-2.56 -7.24,-2.38 -6.90,-2.08 -6.56,-1.78 -6.33,-1.39 -6.10,-1.00 -6.01,-0.55 -5.92,-0.10 -5.92,-0.10 -5.92,-0.10 -5.77,1.61 -5.62,3.34 -4.46,4.96 -3.30,6.57 -1.97,7.75 -0.63,8.92 0.58,9.62 1.80,10.33 3.43,10.94 5.06,11.55 6.35,11.97 7.65,12.40 9.51,12.14 11.37,11.88 11.55,10.71 11.72,9.54 11.82,8.22 11.91,6.89 12.16,5.64 12.41,4.39 13.10,3.08 13.80,1.76 14.75,1.06 15.69,0.35 16.99,-0.45 18.29,-1.25 19.99,-1.98 21.69,-2.70 23.99,-3.31 26.29,-3.93 28.51,-3.94 30.73,-3.95 32.75,-3.21 34.76,-2.46 36.00,-0.92 37.24,0.60 37.55,2.03 37.86,3.46 37.73,4.81 37.59,6.16 37.16,7.44 36.72,8.72 34.85,9.89 32.99,11.06 31.66,11.22 30.34,11.38 28.16,11.62 25.99,11.87 23.98,11.92 21.96,11.98 20.53,11.87 19.09,11.77 18.05,11.52 17.00,11.28 15.82,10.81 14.64,10.33 13.32,9.52 12.00,8.71 10.36,7.71 8.73,6.72 6.78,5.59 4.83,4.46 1.96,3.13 -0.90,1.80 -1.10,1.67 -1.30,1.53 -1.47,1.35 -1.63,1.17 -1.75,0.96 -1.87,0.75 -1.93,0.51 -1.99,0.28 -2.00,0.03 -2.00,-0.20 -1.95,-0.44 -1.89,-0.67 -1.79,-0.89 -1.68,-1.11 -1.52,-1.29 -1.36,-1.48 -1.16,-1.62 -0.97,-1.76 -0.74,-1.85 -0.52,-1.94 -0.28,-1.98 -0.03,-2.01 0.20,-1.99 0.44,-1.96 0.67,-1.88 0.90,-1.80 0.90,-1.80 L 0.90,-1.80 Z"></path></g><g transform="translate(332.3430965131297 329.99403938707763) rotate(0 9.829070472817591 12.832389229527763)" stroke="none"><path fill="#000000" d="M 0.37,-1.89 Q 0.37,-1.89 2.71,-1.33 5.05,-0.78 7.32,-0.20 9.59,0.37 11.63,1.30 13.67,2.22 15.16,3.27 16.65,4.31 17.85,6.22 19.05,8.13 19.68,10.47 20.31,12.82 20.55,15.10 20.78,17.38 21.00,18.62 21.22,19.87 21.26,21.40 21.30,22.93 20.63,23.83 19.95,24.73 18.49,25.25 17.04,25.77 14.92,26.84 12.81,27.92 12.43,27.99 12.05,28.06 11.66,28.00 11.28,27.94 10.93,27.77 10.59,27.59 10.32,27.31 10.05,27.04 9.88,26.69 9.71,26.34 9.66,25.95 9.61,25.57 9.69,25.19 9.77,24.81 9.96,24.47 10.16,24.14 10.45,23.88 10.74,23.63 11.10,23.48 11.46,23.33 11.84,23.30 12.23,23.27 12.61,23.37 12.98,23.47 13.31,23.68 13.63,23.89 13.87,24.20 14.11,24.50 14.24,24.87 14.37,25.24 14.37,25.62 14.38,26.01 14.26,26.38 14.14,26.75 13.91,27.06 13.68,27.37 13.37,27.60 13.05,27.82 12.68,27.93 12.30,28.04 11.92,28.02 11.53,28.01 11.17,27.87 10.80,27.73 10.50,27.49 10.21,27.24 10.00,26.91 9.80,26.58 9.71,26.20 9.62,25.83 9.65,25.44 9.69,25.05 9.85,24.70 10.00,24.35 10.27,24.06 10.53,23.77 10.87,23.59 11.21,23.40 11.21,23.40 11.21,23.40 13.51,22.39 15.80,21.38 16.79,20.77 17.78,20.17 17.78,18.95 17.79,17.73 17.52,15.69 17.26,13.65 16.71,11.75 16.16,9.84 15.33,8.40 14.51,6.95 13.44,6.02 12.37,5.09 10.61,4.33 8.85,3.56 6.60,3.12 4.36,2.67 1.99,2.28 -0.37,1.89 -0.59,1.81 -0.81,1.74 -1.01,1.62 -1.21,1.49 -1.37,1.33 -1.53,1.16 -1.65,0.96 -1.77,0.76 -1.83,0.53 -1.90,0.31 -1.91,0.08 -1.92,-0.14 -1.87,-0.37 -1.83,-0.60 -1.73,-0.81 -1.63,-1.02 -1.48,-1.20 -1.34,-1.38 -1.15,-1.52 -0.97,-1.66 -0.75,-1.75 -0.54,-1.85 -0.31,-1.88 -0.08,-1.92 0.14,-1.90 0.37,-1.89 0.37,-1.89 L 0.37,-1.89 Z"></path></g></svg>