<svg version="1.1" xmlns="http://www.w3.org/2000/svg" viewBox="0 0 806.3256378254048 941.9216607752155"
     width="806.3256378254048" height="941.9216607752155">
    <!-- svg-source:excalidraw -->
    <defs>
        <style class="style-fonts">
            @font-face {
            font-family: "Virgil";
            src: url("https://excalidraw.com/Virgil.woff2");
            }
            @font-face {
            font-family: "Cascadia";
            src: url("https://excalidraw.com/Cascadia.woff2");
            }
        </style>
    </defs>
    <rect x="0" y="0" width="806.3256378254048" height="941.9216607752155" fill="#ffffff"/>
    <g transform="translate(365.03056646007553 456.3780401440363) rotate(0 -9.5 23.5)" stroke="none">
        <path fill="#000000"
              d="M -0.18,1.55 Q -0.18,1.55 -5.06,0.94 -9.94,0.33 -14.27,0.06 -18.60,-0.19 -23.52,-0.04 -28.44,0.11 -32.26,2.34 -36.07,4.56 -37.60,8.16 -39.14,11.76 -38.98,16.57 -38.82,21.38 -36.27,26.72 -33.72,32.07 -26.46,37.69 -19.20,43.31 -11.90,45.98 -4.60,48.66 1.53,49.23 7.67,49.80 12.00,47.89 16.34,45.97 18.09,41.92 19.83,37.86 20.06,32.54 20.28,27.22 17.85,21.37 15.43,15.52 12.40,10.12 9.38,4.73 6.98,1.62 4.58,-1.48 3.08,-2.72 1.57,-3.96 -0.05,-4.38 -1.68,-4.80 -3.07,-4.65 -4.47,-4.50 -6.04,-3.71 -7.60,-2.91 -9.49,-1.88 -11.38,-0.85 -11.65,-0.77 -11.92,-0.69 -12.20,-0.70 -12.48,-0.71 -12.74,-0.81 -13.01,-0.91 -13.22,-1.09 -13.44,-1.26 -13.59,-1.50 -13.74,-1.74 -13.80,-2.01 -13.87,-2.28 -13.84,-2.56 -13.82,-2.84 -13.71,-3.10 -13.59,-3.36 -13.41,-3.56 -13.22,-3.77 -12.97,-3.91 -12.73,-4.04 -12.45,-4.09 -12.17,-4.14 -11.90,-4.10 -11.62,-4.06 -11.37,-3.94 -11.12,-3.81 -10.92,-3.61 -10.72,-3.41 -10.60,-3.16 -10.48,-2.91 -10.44,-2.63 -10.41,-2.35 -10.46,-2.08 -10.52,-1.80 -10.66,-1.56 -10.80,-1.31 -11.01,-1.13 -11.22,-0.94 -11.48,-0.83 -11.73,-0.72 -12.01,-0.70 -12.29,-0.68 -12.57,-0.75 -12.84,-0.82 -13.07,-0.98 -13.31,-1.13 -13.48,-1.35 -13.66,-1.57 -13.75,-1.83 -13.85,-2.10 -13.85,-2.38 -13.86,-2.66 -13.77,-2.93 -13.69,-3.19 -13.52,-3.42 -13.36,-3.65 -13.13,-3.81 -12.90,-3.97 -12.90,-3.97 -12.90,-3.97 -10.91,-4.83 -8.92,-5.69 -6.79,-6.65 -4.66,-7.61 -2.77,-7.55 -0.88,-7.49 1.15,-6.76 3.20,-6.02 4.93,-4.56 6.66,-3.09 9.16,0.17 11.67,3.44 14.77,8.98 17.87,14.53 20.38,20.89 22.89,27.25 22.57,33.07 22.24,38.90 19.99,43.48 17.73,48.06 12.66,50.24 7.58,52.41 1.04,51.78 -5.50,51.15 -13.15,48.29 -20.81,45.42 -28.43,39.37 -36.06,33.31 -38.78,27.42 -41.50,21.53 -41.57,16.14 -41.64,10.75 -39.65,6.57 -37.66,2.40 -33.18,-0.12 -28.70,-2.65 -23.57,-2.86 -18.44,-3.08 -14.02,-2.85 -9.60,-2.63 -4.70,-2.09 0.18,-1.55 0.36,-1.50 0.54,-1.46 0.71,-1.37 0.88,-1.28 1.02,-1.16 1.16,-1.04 1.27,-0.88 1.38,-0.73 1.44,-0.55 1.51,-0.37 1.53,-0.19 1.56,-0.00 1.54,0.18 1.51,0.36 1.45,0.54 1.38,0.72 1.27,0.87 1.17,1.03 1.03,1.15 0.89,1.28 0.72,1.37 0.55,1.45 0.37,1.50 0.19,1.55 0.00,1.55 -0.18,1.55 -0.18,1.55 L -0.18,1.55 Z"></path>
    </g>
    <g transform="translate(353.19837734254645 470.32813381028916) rotate(0 4.504990633374746 7.371802854613179)"
       stroke="none">
        <path fill="#000000"
              d="M 1.88,-1.07 Q 1.88,-1.07 2.78,0.59 3.67,2.27 4.88,4.12 6.08,5.96 7.12,7.79 8.16,9.62 9.24,11.46 10.31,13.30 10.44,13.58 10.56,13.86 10.59,14.16 10.61,14.47 10.54,14.76 10.47,15.06 10.31,15.31 10.15,15.57 9.91,15.76 9.68,15.96 9.39,16.06 9.11,16.17 8.81,16.18 8.50,16.19 8.21,16.11 7.92,16.02 7.67,15.85 7.42,15.67 7.24,15.43 7.06,15.18 6.97,14.89 6.88,14.60 6.89,14.30 6.89,13.99 6.99,13.71 7.10,13.42 7.28,13.18 7.47,12.94 7.73,12.78 7.98,12.61 8.28,12.54 8.57,12.46 8.87,12.48 9.18,12.50 9.46,12.62 9.74,12.74 9.96,12.94 10.19,13.14 10.34,13.40 10.50,13.67 10.56,13.97 10.62,14.26 10.58,14.56 10.54,14.87 10.41,15.14 10.27,15.41 10.06,15.63 9.85,15.85 9.58,15.98 9.31,16.12 9.00,16.16 8.70,16.21 8.41,16.15 8.11,16.10 7.84,15.95 7.57,15.80 7.37,15.58 7.16,15.36 7.16,15.36 7.17,15.36 6.15,13.40 5.13,11.43 4.09,9.78 3.05,8.13 1.57,6.22 0.09,4.32 -0.89,2.70 -1.88,1.07 -1.99,0.83 -2.09,0.59 -2.13,0.33 -2.17,0.07 -2.15,-0.18 -2.13,-0.44 -2.04,-0.69 -1.96,-0.94 -1.82,-1.16 -1.67,-1.38 -1.48,-1.56 -1.29,-1.74 -1.07,-1.87 -0.84,-2.00 -0.59,-2.07 -0.33,-2.14 -0.07,-2.15 0.18,-2.16 0.44,-2.11 0.69,-2.06 0.93,-1.94 1.17,-1.83 1.37,-1.66 1.57,-1.50 1.73,-1.28 1.88,-1.07 1.88,-1.07 L 1.88,-1.07 Z"></path>
    </g>
    <g transform="translate(353.19837734254645 463.77542016174414) rotate(0 6.552713648545023 8.600436663715357)"
       stroke="none">
        <path fill="#000000"
              d="M 0.35,-2.45 Q 0.35,-2.45 1.99,-2.17 3.63,-1.90 5.34,-1.52 7.04,-1.14 8.52,-0.75 10.00,-0.37 11.76,0.13 13.52,0.64 14.54,2.14 15.57,3.63 15.67,5.04 15.78,6.45 15.52,8.12 15.27,9.79 14.59,11.57 13.91,13.35 13.42,14.54 12.94,15.73 9.99,16.97 7.04,18.21 6.64,18.05 6.24,17.89 5.91,17.61 5.58,17.33 5.36,16.96 5.14,16.59 5.05,16.17 4.96,15.75 5.01,15.32 5.06,14.89 5.24,14.51 5.42,14.12 5.72,13.80 6.01,13.49 6.39,13.29 6.77,13.09 7.20,13.02 7.62,12.96 8.05,13.03 8.47,13.10 8.85,13.30 9.23,13.50 9.52,13.82 9.82,14.13 10.00,14.52 10.18,14.91 10.22,15.34 10.27,15.76 10.17,16.18 10.08,16.60 9.86,16.97 9.63,17.34 9.31,17.62 8.98,17.89 8.58,18.05 8.18,18.21 7.75,18.23 7.32,18.25 6.91,18.14 6.49,18.02 6.14,17.78 5.78,17.54 5.52,17.19 5.26,16.85 5.13,16.44 4.99,16.03 4.99,15.60 4.99,15.18 5.13,14.77 5.27,14.36 5.53,14.02 5.79,13.68 6.15,13.44 6.51,13.20 6.92,13.08 7.33,12.97 7.76,12.99 8.19,13.02 8.19,13.02 8.19,13.02 8.15,13.36 8.11,13.70 8.58,12.63 9.05,11.57 9.49,10.26 9.93,8.96 10.44,6.98 10.94,5.00 9.86,4.58 8.77,4.16 7.44,3.79 6.11,3.42 4.53,3.13 2.95,2.84 1.30,2.64 -0.35,2.45 -0.63,2.37 -0.92,2.29 -1.18,2.15 -1.44,2.00 -1.66,1.80 -1.88,1.60 -2.05,1.35 -2.21,1.10 -2.31,0.82 -2.41,0.54 -2.44,0.24 -2.47,-0.05 -2.43,-0.34 -2.39,-0.64 -2.27,-0.91 -2.16,-1.19 -1.99,-1.43 -1.81,-1.68 -1.59,-1.87 -1.36,-2.06 -1.09,-2.19 -0.82,-2.33 -0.53,-2.39 -0.24,-2.46 0.05,-2.45 0.35,-2.45 0.35,-2.45 L 0.35,-2.45 Z"></path>
    </g>
    <g transform="translate(308.14847100879933 509.6444157015594) rotate(0 -80.6802867977108 72.07985013399542)"
       stroke="none">
        <path fill="#000000"
              d="M 1.06,1.13 Q 1.06,1.13 -2.72,4.64 -6.51,8.15 -13.57,14.13 -20.63,20.11 -29.25,28.26 -37.86,36.42 -48.36,46.94 -58.85,57.46 -71.58,69.49 -84.30,81.51 -97.49,93.45 -110.67,105.39 -122.88,115.89 -135.09,126.39 -142.19,131.81 -149.28,137.23 -152.54,139.54 -155.80,141.85 -157.13,142.89 -158.46,143.93 -158.67,144.04 -158.89,144.14 -159.13,144.18 -159.37,144.21 -159.61,144.16 -159.85,144.11 -160.06,143.99 -160.26,143.87 -160.43,143.69 -160.59,143.51 -160.68,143.29 -160.77,143.06 -160.79,142.82 -160.81,142.58 -160.75,142.35 -160.69,142.11 -160.56,141.91 -160.43,141.71 -160.24,141.56 -160.05,141.41 -159.82,141.33 -159.59,141.24 -159.35,141.24 -159.11,141.23 -158.88,141.31 -158.65,141.38 -158.45,141.52 -158.26,141.66 -158.12,141.86 -157.98,142.06 -157.91,142.29 -157.84,142.52 -157.85,142.76 -157.86,143.00 -157.94,143.23 -158.03,143.46 -158.18,143.64 -158.33,143.83 -158.54,143.96 -158.74,144.09 -158.97,144.15 -159.21,144.20 -159.45,144.18 -159.69,144.16 -159.91,144.06 -160.13,143.97 -160.31,143.80 -160.49,143.64 -160.61,143.43 -160.73,143.22 -160.77,142.98 -160.82,142.74 -160.78,142.50 -160.75,142.26 -160.64,142.05 -160.53,141.83 -160.36,141.66 -160.18,141.49 -160.19,141.49 -160.19,141.49 -158.76,140.59 -157.34,139.68 -154.12,137.40 -150.90,135.11 -143.87,129.74 -136.84,124.36 -124.66,113.88 -112.49,103.39 -99.33,91.46 -86.18,79.53 -73.49,67.52 -60.81,55.51 -50.31,44.94 -39.80,34.37 -31.15,26.14 -22.50,17.91 -15.53,11.94 -8.55,5.97 -4.81,2.41 -1.06,-1.13 -0.91,-1.25 -0.76,-1.36 -0.59,-1.43 -0.41,-1.50 -0.23,-1.53 -0.04,-1.56 0.14,-1.54 0.33,-1.52 0.50,-1.46 0.68,-1.40 0.84,-1.30 1.00,-1.19 1.13,-1.06 1.26,-0.92 1.35,-0.75 1.44,-0.59 1.49,-0.41 1.54,-0.23 1.55,-0.04 1.55,0.14 1.51,0.32 1.47,0.51 1.39,0.68 1.31,0.85 1.18,0.99 1.06,1.13 1.06,1.13 L 1.06,1.13 Z"></path>
    </g>
    <g transform="translate(423.6400490644056 530.1216458532626) rotate(0 146.61696788619525 82.72800981288113)"
       stroke="none">
        <path fill="#000000"
              d="M 0.78,-1.34 Q 0.78,-1.34 6.42,1.97 12.05,5.30 22.67,11.19 33.28,17.07 49.09,25.23 64.89,33.38 86.93,45.34 108.97,57.30 133.86,70.15 158.75,83.00 186.53,98.36 214.32,113.73 232.98,124.98 251.63,136.23 263.11,143.85 274.58,151.47 280.15,155.17 285.72,158.87 288.09,160.45 290.46,162.02 290.62,162.17 290.77,162.31 290.88,162.50 290.98,162.69 291.01,162.90 291.05,163.11 291.02,163.32 290.99,163.54 290.89,163.73 290.79,163.92 290.63,164.07 290.48,164.21 290.29,164.31 290.09,164.40 289.88,164.42 289.67,164.45 289.46,164.40 289.25,164.36 289.06,164.25 288.88,164.14 288.74,163.98 288.60,163.82 288.52,163.62 288.44,163.42 288.42,163.21 288.41,163.00 288.47,162.79 288.52,162.58 288.64,162.40 288.76,162.22 288.93,162.09 289.10,161.96 289.30,161.89 289.50,161.82 289.72,161.82 289.93,161.82 290.13,161.88 290.34,161.95 290.51,162.08 290.68,162.21 290.80,162.38 290.92,162.56 290.98,162.76 291.04,162.97 291.03,163.18 291.02,163.40 290.95,163.60 290.87,163.80 290.73,163.96 290.59,164.13 290.41,164.24 290.23,164.35 290.02,164.40 289.81,164.45 289.60,164.43 289.39,164.40 289.19,164.32 288.99,164.23 289.00,164.23 289.00,164.23 286.63,162.66 284.26,161.09 278.68,157.39 273.11,153.69 261.68,146.11 250.25,138.53 231.63,127.31 213.02,116.09 185.26,100.76 157.50,85.42 132.57,72.58 107.65,59.73 85.62,47.81 63.60,35.89 47.74,27.75 31.89,19.60 21.22,13.74 10.55,7.88 4.88,4.61 -0.78,1.34 -0.93,1.23 -1.08,1.12 -1.20,0.97 -1.32,0.82 -1.40,0.65 -1.48,0.48 -1.52,0.30 -1.55,0.11 -1.54,-0.06 -1.54,-0.25 -1.48,-0.43 -1.43,-0.61 -1.33,-0.78 -1.24,-0.94 -1.11,-1.07 -0.98,-1.21 -0.82,-1.31 -0.66,-1.41 -0.48,-1.47 -0.30,-1.53 -0.11,-1.54 0.07,-1.56 0.25,-1.52 0.44,-1.49 0.61,-1.42 0.78,-1.34 0.78,-1.34 L 0.78,-1.34 Z"></path>
    </g>
    <g transform="translate(766.8384264069521 692.3013086547523) rotate(0 -4.095446030340668 21.296319357771353)"
       stroke="none">
        <path fill="#000000"
              d="M 0.12,1.55 Q 0.12,1.55 -2.69,1.75 -5.52,1.96 -9.55,2.27 -13.58,2.58 -18.08,3.17 -22.58,3.76 -25.94,5.10 -29.30,6.43 -31.03,9.17 -32.76,11.90 -33.54,15.41 -34.32,18.92 -31.45,23.72 -28.59,28.52 -24.21,31.95 -19.83,35.38 -14.80,37.04 -9.77,38.71 -4.44,38.96 0.89,39.22 6.55,37.48 12.20,35.75 16.39,32.75 20.57,29.76 22.49,26.29 24.41,22.82 24.99,19.35 25.58,15.88 25.16,13.37 24.75,10.87 23.51,9.26 22.27,7.66 20.24,6.57 18.22,5.47 14.86,4.77 11.50,4.06 5.13,3.51 -1.23,2.96 -6.06,2.72 -10.89,2.48 -13.60,2.61 -16.31,2.75 -18.67,2.94 -21.02,3.14 -21.27,3.11 -21.52,3.08 -21.74,2.97 -21.97,2.86 -22.14,2.68 -22.32,2.51 -22.43,2.28 -22.55,2.06 -22.58,1.81 -22.62,1.57 -22.57,1.32 -22.53,1.08 -22.41,0.86 -22.28,0.64 -22.10,0.47 -21.91,0.30 -21.69,0.20 -21.46,0.10 -21.21,0.08 -20.96,0.06 -20.72,0.12 -20.47,0.18 -20.26,0.31 -20.05,0.44 -19.89,0.64 -19.74,0.83 -19.65,1.06 -19.56,1.30 -19.55,1.55 -19.54,1.79 -19.62,2.03 -19.69,2.27 -19.83,2.48 -19.98,2.68 -20.18,2.83 -20.38,2.97 -20.62,3.05 -20.86,3.12 -21.10,3.12 -21.35,3.11 -21.59,3.03 -21.82,2.95 -22.02,2.79 -22.22,2.64 -22.35,2.43 -22.49,2.22 -22.55,1.98 -22.61,1.73 -22.59,1.48 -22.57,1.24 -22.48,1.01 -22.38,0.78 -22.21,0.59 -22.05,0.40 -21.83,0.28 -21.62,0.15 -21.37,0.10 -21.13,0.06 -21.13,0.06 -21.13,0.06 -18.78,0.09 -16.44,0.12 -13.60,-0.00 -10.77,-0.13 -5.88,0.10 -1.00,0.34 5.52,0.92 12.06,1.49 15.77,2.33 19.48,3.18 21.90,4.61 24.33,6.05 25.81,8.19 27.29,10.34 27.73,13.31 28.17,16.29 27.44,20.18 26.71,24.08 24.44,27.95 22.16,31.83 17.58,35.05 13.00,38.26 6.90,40.06 0.81,41.85 -4.89,41.54 -10.59,41.23 -16.02,39.36 -21.44,37.49 -26.16,33.70 -30.87,29.90 -33.88,24.37 -36.88,18.83 -35.97,14.64 -35.06,10.45 -32.81,7.25 -30.55,4.05 -26.76,2.51 -22.97,0.97 -18.40,0.33 -13.82,-0.29 -9.80,-0.65 -5.77,-1.01 -2.95,-1.28 -0.12,-1.55 0.05,-1.54 0.24,-1.54 0.42,-1.49 0.60,-1.43 0.77,-1.34 0.93,-1.25 1.07,-1.12 1.20,-0.99 1.30,-0.83 1.40,-0.67 1.46,-0.49 1.52,-0.31 1.54,-0.12 1.56,0.05 1.53,0.24 1.50,0.43 1.42,0.60 1.35,0.77 1.24,0.92 1.12,1.07 0.98,1.19 0.83,1.31 0.66,1.39 0.49,1.48 0.31,1.51 0.12,1.55 0.12,1.55 L 0.12,1.55 Z"></path>
    </g>
    <g transform="translate(130.40611329201508 666.0904540605723) rotate(0 5.324079839442845 27.029943800248304)"
       stroke="none">
        <path fill="#000000"
              d="M 0.40,1.50 Q 0.40,1.50 -3.13,2.41 -6.67,3.32 -10.65,5.06 -14.63,6.81 -18.52,10.70 -22.41,14.59 -24.24,19.81 -26.07,25.02 -25.27,30.31 -24.46,35.60 -20.98,39.57 -17.49,43.55 -11.92,46.16 -6.35,48.76 0.87,49.88 8.09,51.00 15.33,50.56 22.57,50.11 27.59,48.36 32.62,46.60 34.56,43.81 36.50,41.01 35.74,37.24 34.98,33.46 31.51,29.14 28.03,24.81 22.87,21.09 17.70,17.38 11.30,14.16 4.90,10.93 0.37,9.58 -4.16,8.23 -7.02,7.65 -9.87,7.07 -12.29,6.84 -14.71,6.60 -14.95,6.52 -15.19,6.45 -15.39,6.30 -15.59,6.15 -15.73,5.95 -15.88,5.74 -15.95,5.50 -16.02,5.26 -16.01,5.01 -16.00,4.76 -15.91,4.53 -15.82,4.29 -15.66,4.10 -15.51,3.90 -15.29,3.77 -15.08,3.64 -14.84,3.58 -14.59,3.52 -14.34,3.55 -14.09,3.57 -13.86,3.67 -13.64,3.77 -13.45,3.94 -13.27,4.11 -13.14,4.33 -13.02,4.55 -12.98,4.80 -12.93,5.04 -12.97,5.29 -13.01,5.54 -13.12,5.76 -13.24,5.98 -13.41,6.16 -13.59,6.34 -13.82,6.44 -14.05,6.55 -14.29,6.58 -14.54,6.62 -14.79,6.57 -15.03,6.52 -15.25,6.39 -15.47,6.26 -15.63,6.08 -15.80,5.89 -15.89,5.66 -15.99,5.42 -16.01,5.17 -16.03,4.92 -15.96,4.68 -15.90,4.44 -15.76,4.23 -15.62,4.02 -15.43,3.87 -15.23,3.71 -14.99,3.63 -14.76,3.54 -14.51,3.54 -14.26,3.54 -14.26,3.54 -14.26,3.54 -11.80,4.02 -9.35,4.50 -6.38,5.10 -3.40,5.71 1.33,7.15 6.08,8.58 12.66,11.91 19.24,15.25 24.66,19.21 30.09,23.16 33.80,28.02 37.52,32.88 38.15,37.42 38.79,41.97 36.26,45.44 33.73,48.92 28.24,50.84 22.75,52.76 15.22,53.20 7.69,53.64 0.10,52.41 -7.47,51.19 -13.47,48.27 -19.47,45.36 -23.27,40.78 -27.07,36.20 -27.88,30.22 -28.69,24.24 -26.57,18.47 -24.46,12.69 -20.16,8.45 -15.86,4.20 -11.65,2.32 -7.45,0.44 -3.92,-0.53 -0.40,-1.50 -0.21,-1.53 -0.02,-1.56 0.15,-1.54 0.34,-1.52 0.52,-1.46 0.69,-1.39 0.85,-1.29 1.01,-1.18 1.14,-1.05 1.26,-0.91 1.35,-0.74 1.44,-0.58 1.49,-0.39 1.54,-0.21 1.55,-0.02 1.55,0.15 1.51,0.34 1.47,0.52 1.38,0.69 1.30,0.86 1.17,1.00 1.05,1.14 0.90,1.25 0.75,1.36 0.57,1.43 0.40,1.50 0.40,1.50 L 0.40,1.50 Z"></path>
    </g>
    <g transform="translate(298.3194005359817 469.509044604221) rotate(0 -93.78571409480088 -46.6880847458834)"
       stroke="none">
        <path fill="#000000"
              d="M -1.23,0.95 Q -1.23,0.95 -4.50,-3.29 -7.76,-7.55 -11.40,-10.67 -15.03,-13.80 -28.49,-20.50 -41.94,-27.21 -57.12,-34.33 -72.30,-41.46 -88.17,-48.49 -104.03,-55.52 -118.53,-61.57 -133.04,-67.62 -143.92,-72.32 -154.81,-77.02 -162.27,-80.43 -169.74,-83.85 -174.54,-86.00 -179.35,-88.16 -183.00,-89.68 -186.64,-91.21 -186.85,-91.35 -187.07,-91.50 -187.22,-91.70 -187.38,-91.90 -187.46,-92.14 -187.54,-92.39 -187.54,-92.64 -187.55,-92.90 -187.47,-93.14 -187.38,-93.38 -187.23,-93.59 -187.08,-93.79 -186.87,-93.94 -186.66,-94.08 -186.41,-94.15 -186.16,-94.22 -185.91,-94.21 -185.65,-94.19 -185.41,-94.10 -185.18,-94.01 -184.98,-93.84 -184.78,-93.68 -184.65,-93.46 -184.52,-93.24 -184.46,-92.99 -184.41,-92.74 -184.43,-92.49 -184.46,-92.23 -184.57,-92.00 -184.67,-91.77 -184.85,-91.58 -185.02,-91.39 -185.25,-91.27 -185.47,-91.15 -185.73,-91.11 -185.98,-91.07 -186.23,-91.11 -186.48,-91.15 -186.71,-91.27 -186.94,-91.39 -187.11,-91.57 -187.29,-91.76 -187.40,-91.99 -187.51,-92.22 -187.54,-92.47 -187.56,-92.73 -187.51,-92.98 -187.46,-93.23 -187.33,-93.45 -187.19,-93.67 -187.00,-93.83 -186.81,-94.00 -186.57,-94.09 -186.33,-94.19 -186.08,-94.21 -185.82,-94.22 -185.57,-94.15 -185.33,-94.09 -185.33,-94.09 -185.33,-94.09 -181.80,-92.33 -178.27,-90.58 -173.45,-88.43 -168.63,-86.27 -161.19,-82.87 -153.75,-79.48 -142.88,-74.79 -132.00,-70.11 -117.46,-64.06 -102.93,-58.02 -87.03,-50.99 -71.13,-43.96 -55.91,-36.84 -40.68,-29.73 -26.93,-22.87 -13.17,-16.00 -9.29,-12.70 -5.41,-9.39 -2.09,-5.17 1.23,-0.95 1.32,-0.79 1.42,-0.63 1.48,-0.45 1.53,-0.27 1.54,-0.08 1.55,0.09 1.52,0.28 1.48,0.47 1.41,0.64 1.33,0.81 1.21,0.96 1.10,1.10 0.95,1.22 0.80,1.33 0.63,1.41 0.45,1.49 0.27,1.52 0.08,1.55 -0.09,1.54 -0.28,1.53 -0.46,1.47 -0.64,1.42 -0.80,1.32 -0.96,1.22 -1.10,1.09 -1.23,0.95 -1.23,0.95 L -1.23,0.95 Z"></path>
    </g>
    <g transform="translate(85.35620695826796 299.9575789481181) rotate(0 -29.077666815418624 39.316281891270236)"
       stroke="none">
        <path fill="#000000"
              d="M 0.18,1.55 Q 0.18,1.55 -5.70,2.22 -11.59,2.89 -18.92,5.03 -26.25,7.16 -34.50,11.09 -42.74,15.02 -50.18,20.63 -57.61,26.24 -62.09,32.74 -66.57,39.24 -68.69,45.86 -70.81,52.49 -69.89,57.85 -68.98,63.20 -64.79,66.73 -60.59,70.26 -50.28,72.23 -39.98,74.21 -30.73,73.22 -21.48,72.22 -13.38,69.25 -5.28,66.28 0.87,62.05 7.03,57.82 9.53,52.44 12.02,47.06 12.64,41.35 13.26,35.65 12.14,30.51 11.03,25.38 8.98,21.65 6.93,17.91 3.83,15.49 0.73,13.08 -3.77,11.36 -8.29,9.64 -16.03,8.43 -23.78,7.22 -29.72,6.22 -35.67,5.22 -39.37,4.56 -43.08,3.90 -45.66,3.62 -48.24,3.35 -48.48,3.27 -48.72,3.19 -48.92,3.04 -49.12,2.89 -49.27,2.68 -49.41,2.47 -49.48,2.23 -49.55,1.99 -49.54,1.74 -49.52,1.49 -49.43,1.25 -49.34,1.02 -49.18,0.83 -49.02,0.63 -48.81,0.50 -48.59,0.37 -48.35,0.31 -48.10,0.26 -47.85,0.28 -47.60,0.31 -47.37,0.41 -47.14,0.52 -46.96,0.69 -46.77,0.86 -46.66,1.08 -46.54,1.30 -46.49,1.55 -46.45,1.80 -46.49,2.04 -46.53,2.29 -46.64,2.52 -46.76,2.74 -46.94,2.91 -47.12,3.09 -47.35,3.20 -47.58,3.30 -47.83,3.33 -48.08,3.36 -48.32,3.31 -48.57,3.26 -48.78,3.13 -49.00,3.00 -49.16,2.81 -49.33,2.62 -49.42,2.39 -49.52,2.16 -49.53,1.91 -49.55,1.65 -49.49,1.41 -49.42,1.17 -49.28,0.96 -49.14,0.75 -48.94,0.60 -48.74,0.44 -48.51,0.36 -48.27,0.28 -48.02,0.28 -47.77,0.27 -47.77,0.27 -47.77,0.27 -45.19,0.79 -42.62,1.32 -38.92,1.97 -35.23,2.63 -29.30,3.63 -23.37,4.63 -15.36,5.91 -7.35,7.18 -2.50,9.09 2.34,11.00 5.76,13.80 9.18,16.60 11.39,20.70 13.59,24.80 14.73,30.35 15.87,35.90 15.14,42.03 14.41,48.15 11.52,54.00 8.64,59.85 2.13,64.30 -4.36,68.75 -12.77,71.80 -21.18,74.85 -30.82,75.83 -40.46,76.82 -51.32,74.58 -62.18,72.34 -66.80,68.17 -71.42,64.00 -72.41,57.90 -73.39,51.80 -71.11,44.76 -68.83,37.71 -64.07,30.89 -59.30,24.07 -51.64,18.28 -43.97,12.49 -35.52,8.44 -27.07,4.39 -19.51,2.16 -11.95,-0.07 -6.07,-0.81 -0.18,-1.55 0.00,-1.55 0.19,-1.55 0.37,-1.50 0.55,-1.45 0.72,-1.37 0.88,-1.28 1.03,-1.15 1.17,-1.03 1.27,-0.87 1.38,-0.72 1.45,-0.54 1.51,-0.37 1.53,-0.18 1.56,0.00 1.53,0.18 1.51,0.37 1.44,0.55 1.38,0.72 1.27,0.88 1.16,1.03 1.02,1.16 0.88,1.28 0.71,1.37 0.55,1.46 0.36,1.50 0.18,1.55 0.18,1.55 L 0.18,1.55 Z"></path>
    </g>
    <g transform="translate(415.4491570037243 430.19276271295075) rotate(0 71.6703055309614 -53.24079839442845)"
       stroke="none">
        <path fill="#000000"
              d="M -1.00,-1.23 Q -1.00,-1.23 5.37,-6.38 11.75,-11.53 19.64,-18.18 27.53,-24.82 37.75,-32.61 47.97,-40.40 60.09,-49.36 72.20,-58.31 84.19,-66.83 96.18,-75.34 105.75,-82.02 115.32,-88.70 122.22,-93.42 129.12,-98.14 132.98,-100.85 136.85,-103.56 138.48,-104.73 140.11,-105.90 140.31,-106.00 140.51,-106.10 140.74,-106.13 140.96,-106.15 141.18,-106.11 141.40,-106.06 141.59,-105.95 141.78,-105.84 141.93,-105.67 142.08,-105.50 142.16,-105.30 142.25,-105.09 142.27,-104.87 142.28,-104.64 142.22,-104.43 142.17,-104.21 142.05,-104.02 141.92,-103.84 141.75,-103.70 141.57,-103.56 141.36,-103.49 141.15,-103.41 140.93,-103.41 140.70,-103.40 140.49,-103.47 140.28,-103.54 140.10,-103.67 139.92,-103.80 139.79,-103.99 139.66,-104.17 139.59,-104.39 139.53,-104.60 139.54,-104.82 139.55,-105.05 139.63,-105.26 139.71,-105.47 139.85,-105.64 139.99,-105.81 140.18,-105.93 140.37,-106.05 140.59,-106.10 140.81,-106.15 141.03,-106.13 141.25,-106.11 141.46,-106.02 141.66,-105.93 141.83,-105.78 141.99,-105.63 142.10,-105.43 142.21,-105.23 142.25,-105.01 142.29,-104.79 142.25,-104.57 142.22,-104.35 142.12,-104.15 142.02,-103.95 141.86,-103.80 141.70,-103.64 141.70,-103.64 141.70,-103.64 140.04,-102.51 138.38,-101.37 134.51,-98.65 130.63,-95.93 123.75,-91.20 116.87,-86.48 107.32,-79.80 97.77,-73.11 85.81,-64.59 73.86,-56.07 61.78,-47.11 49.70,-38.15 39.56,-30.37 29.42,-22.59 21.54,-15.89 13.67,-9.18 7.33,-3.97 1.00,1.23 0.84,1.33 0.68,1.43 0.49,1.49 0.31,1.55 0.12,1.57 -0.06,1.58 -0.25,1.55 -0.44,1.52 -0.62,1.45 -0.79,1.37 -0.94,1.26 -1.10,1.14 -1.22,0.99 -1.34,0.84 -1.42,0.67 -1.50,0.50 -1.54,0.31 -1.58,0.12 -1.57,-0.06 -1.56,-0.25 -1.51,-0.44 -1.46,-0.62 -1.36,-0.79 -1.27,-0.95 -1.13,-1.09 -1.00,-1.23 -1.00,-1.23 L -1.00,-1.23 Z"></path>
    </g>
    <g transform="translate(651.3468483513458 263.0985646750523) rotate(0 -26.210854594180205 23.344042372941686)"
       stroke="none">
        <path fill="#000000"
              d="M -0.08,1.56 Q -0.08,1.56 -4.55,1.29 -9.02,1.02 -15.05,1.60 -21.08,2.17 -29.27,3.82 -37.46,5.46 -46.04,8.71 -54.62,11.96 -60.96,17.01 -67.30,22.05 -70.37,27.74 -73.44,33.43 -72.87,37.94 -72.29,42.46 -63.48,45.56 -54.66,48.66 -43.90,50.06 -33.14,51.45 -21.58,50.64 -10.01,49.83 -0.73,46.93 8.55,44.04 13.53,40.34 18.50,36.64 20.04,32.50 21.58,28.36 20.44,24.00 19.29,19.64 15.41,15.54 11.54,11.44 5.51,8.06 -0.51,4.68 -6.61,2.04 -12.70,-0.58 -18.51,-1.91 -24.31,-3.24 -29.40,-4.29 -34.49,-5.34 -37.31,-5.79 -40.14,-6.23 -41.62,-5.50 -43.09,-4.77 -43.30,-4.67 -43.51,-4.58 -43.74,-4.55 -43.97,-4.53 -44.20,-4.57 -44.42,-4.62 -44.62,-4.74 -44.82,-4.86 -44.97,-5.04 -45.12,-5.21 -45.21,-5.43 -45.29,-5.64 -45.31,-5.87 -45.32,-6.10 -45.26,-6.32 -45.20,-6.55 -45.07,-6.74 -44.94,-6.93 -44.76,-7.07 -44.57,-7.21 -44.35,-7.29 -44.14,-7.36 -43.90,-7.36 -43.67,-7.36 -43.45,-7.29 -43.23,-7.22 -43.05,-7.08 -42.87,-6.94 -42.74,-6.75 -42.61,-6.56 -42.54,-6.33 -42.48,-6.11 -42.49,-5.88 -42.50,-5.65 -42.59,-5.43 -42.67,-5.22 -42.82,-5.04 -42.97,-4.87 -43.17,-4.75 -43.37,-4.63 -43.59,-4.58 -43.82,-4.53 -44.05,-4.55 -44.28,-4.57 -44.49,-4.67 -44.70,-4.77 -44.87,-4.93 -45.03,-5.08 -45.14,-5.29 -45.25,-5.49 -45.29,-5.72 -45.33,-5.95 -45.29,-6.18 -45.25,-6.40 -45.15,-6.61 -45.04,-6.81 -44.87,-6.97 -44.70,-7.13 -44.71,-7.13 -44.71,-7.13 -42.26,-7.98 -39.81,-8.82 -36.88,-8.37 -33.96,-7.92 -28.84,-6.86 -23.72,-5.81 -17.69,-4.40 -11.67,-3.00 -5.44,-0.30 0.77,2.39 7.11,6.01 13.44,9.63 17.60,14.25 21.77,18.88 22.91,23.95 24.06,29.03 22.13,33.81 20.20,38.58 14.79,42.56 9.38,46.54 -0.21,49.50 -9.82,52.47 -21.65,53.28 -33.48,54.08 -44.52,52.62 -55.57,51.16 -64.81,47.56 -74.05,43.95 -74.96,38.21 -75.87,32.47 -72.46,26.23 -69.05,19.98 -62.34,14.69 -55.64,9.40 -46.83,6.05 -38.03,2.70 -29.70,1.00 -21.37,-0.69 -15.12,-1.32 -8.87,-1.96 -4.39,-1.76 0.08,-1.56 0.26,-1.52 0.45,-1.49 0.62,-1.41 0.79,-1.34 0.94,-1.22 1.09,-1.11 1.21,-0.96 1.33,-0.81 1.40,-0.64 1.48,-0.47 1.52,-0.29 1.55,-0.10 1.54,0.08 1.53,0.26 1.48,0.44 1.42,0.63 1.33,0.79 1.23,0.95 1.10,1.08 0.97,1.22 0.81,1.32 0.65,1.41 0.47,1.47 0.29,1.53 0.10,1.54 -0.08,1.56 -0.08,1.56 L -0.08,1.56 Z"></path>
    </g>
    <g transform="translate(619.4023693146887 274.5757948267555) rotate(0 7 12.5)">
        <text x="0" y="18" font-family="Virgil, Segoe UI Emoji" font-size="20px" fill="#000000" text-anchor="start"
              style="white-space: pre;" direction="ltr">A
        </text>
    </g>
    <g transform="translate(41.94447903665707 324.54023639691144) rotate(0 8 12.5)">
        <text x="0" y="18" font-family="Virgil, Segoe UI Emoji" font-size="20px" fill="#000000" text-anchor="start"
              style="white-space: pre;" direction="ltr">B
        </text>
    </g>
    <g transform="translate(124.67248884953815 684.9394870668885) rotate(0 7 12.5)">
        <text x="0" y="18" font-family="Virgil, Segoe UI Emoji" font-size="20px" fill="#000000" text-anchor="start"
              style="white-space: pre;" direction="ltr">C
        </text>
    </g>
    <g transform="translate(756.1902667280664 698.0449143639787) rotate(0 8.5 12.5)">
        <text x="0" y="18" font-family="Virgil, Segoe UI Emoji" font-size="20px" fill="#000000" text-anchor="start"
              style="white-space: pre;" direction="ltr">D
        </text>
    </g>
    <g transform="translate(763.5620695826796 684.9295058001392) rotate(0 1.6381784121362557 -78.63256378254047)"
       stroke="none">
        <path fill="#000000"
              d="M -1.56,0 Q -1.56,0 -1.52,-2.82 -1.49,-5.65 -1.46,-9.91 -1.44,-14.17 -1.42,-21.16 -1.40,-28.16 -0.68,-41.29 0.03,-54.43 0.57,-67.52 1.12,-80.61 1.35,-92.76 1.59,-104.90 1.69,-114.78 1.79,-124.65 1.83,-131.67 1.88,-138.69 1.90,-143.56 1.92,-148.43 1.80,-152.05 1.68,-155.67 1.72,-155.92 1.77,-156.17 1.89,-156.40 2.01,-156.63 2.20,-156.80 2.38,-156.98 2.61,-157.08 2.85,-157.19 3.10,-157.22 3.36,-157.25 3.61,-157.19 3.86,-157.13 4.08,-157.00 4.30,-156.87 4.46,-156.67 4.63,-156.48 4.72,-156.24 4.81,-156.00 4.83,-155.74 4.84,-155.49 4.77,-155.24 4.70,-154.99 4.56,-154.78 4.41,-154.57 4.21,-154.42 4.00,-154.26 3.76,-154.18 3.52,-154.10 3.26,-154.10 3.01,-154.10 2.76,-154.18 2.52,-154.27 2.32,-154.42 2.11,-154.58 1.97,-154.79 1.83,-155.00 1.76,-155.25 1.69,-155.50 1.71,-155.75 1.72,-156.01 1.82,-156.25 1.91,-156.48 2.08,-156.68 2.25,-156.87 2.47,-157.01 2.69,-157.14 2.94,-157.19 3.19,-157.25 3.44,-157.22 3.70,-157.19 3.93,-157.08 4.16,-156.97 4.35,-156.80 4.53,-156.62 4.65,-156.39 4.77,-156.17 4.81,-155.91 4.85,-155.66 4.85,-155.66 4.85,-155.66 4.71,-152.04 4.57,-148.42 4.56,-143.55 4.54,-138.68 4.51,-131.65 4.47,-124.62 4.38,-114.74 4.28,-104.85 4.06,-92.68 3.84,-80.50 3.32,-67.39 2.79,-54.28 2.10,-41.22 1.40,-28.16 1.42,-21.16 1.44,-14.17 1.46,-9.91 1.49,-5.65 1.52,-2.82 1.56,0 1.53,0.18 1.51,0.37 1.45,0.54 1.38,0.72 1.27,0.88 1.16,1.03 1.02,1.16 0.88,1.28 0.72,1.37 0.55,1.46 0.37,1.50 0.18,1.55 -0.00,1.55 -0.18,1.55 -0.37,1.50 -0.55,1.46 -0.72,1.37 -0.88,1.28 -1.02,1.16 -1.16,1.03 -1.27,0.88 -1.38,0.72 -1.45,0.54 -1.51,0.37 -1.53,0.18 -1.56,-0.00 -1.56,-0.00 L -1.56,0 Z"></path>
    </g>
    <g transform="translate(669.3668108848447 329.44479036657077) rotate(0 45.459450936781195 40.135371097338364)"
       stroke="none">
        <path fill="#000000"
              d="M 0.96,-1.39 Q 0.96,-1.39 3.99,0.76 7.02,2.93 11.61,6.22 16.19,9.51 23.06,14.20 29.93,18.90 38.33,26.13 46.73,33.37 54.99,40.67 63.25,47.98 69.61,54.41 75.97,60.84 80.34,65.95 84.71,71.07 87.76,74.40 90.80,77.72 90.94,77.94 91.07,78.16 91.13,78.41 91.19,78.66 91.17,78.91 91.14,79.17 91.04,79.40 90.93,79.64 90.76,79.83 90.58,80.02 90.36,80.14 90.13,80.26 89.88,80.31 89.63,80.35 89.37,80.31 89.12,80.27 88.89,80.16 88.66,80.04 88.48,79.85 88.30,79.67 88.19,79.44 88.08,79.21 88.05,78.95 88.02,78.70 88.07,78.44 88.13,78.19 88.26,77.97 88.39,77.75 88.58,77.58 88.77,77.41 89.01,77.32 89.25,77.22 89.50,77.20 89.76,77.18 90.01,77.25 90.26,77.32 90.47,77.46 90.68,77.60 90.84,77.80 91.00,78.00 91.08,78.25 91.17,78.49 91.17,78.75 91.18,79.00 91.10,79.25 91.02,79.49 90.86,79.70 90.71,79.90 90.50,80.05 90.29,80.20 90.04,80.27 89.80,80.34 89.54,80.33 89.28,80.32 89.04,80.22 88.80,80.13 88.61,79.97 88.41,79.80 88.41,79.80 88.41,79.81 85.53,76.32 82.65,72.83 78.34,67.80 74.02,62.77 67.71,56.41 61.40,50.06 53.14,42.79 44.88,35.52 36.59,28.42 28.29,21.31 21.36,16.65 14.44,11.98 9.82,8.76 5.21,5.54 2.12,3.47 -0.96,1.39 -1.11,1.25 -1.26,1.12 -1.38,0.95 -1.50,0.78 -1.57,0.59 -1.64,0.40 -1.67,0.20 -1.69,-0.00 -1.66,-0.20 -1.64,-0.40 -1.57,-0.59 -1.49,-0.78 -1.38,-0.95 -1.26,-1.12 -1.11,-1.26 -0.96,-1.39 -0.77,-1.49 -0.59,-1.58 -0.40,-1.63 -0.20,-1.68 0.00,-1.68 0.20,-1.68 0.40,-1.63 0.60,-1.58 0.78,-1.48 0.96,-1.39 0.96,-1.39 L 0.96,-1.39 Z"></path>
    </g>
    <g transform="translate(766.8384264069521 432.65003033115516) rotate(0 9.419525869783513 23.344042372941686)"
       stroke="none">
        <path fill="#000000"
              d="M 0.14,1.56 Q 0.14,1.56 -2.31,1.69 -4.77,1.83 -5.73,3.13 -6.69,4.43 -7.38,6.92 -8.06,9.42 -8.40,12.58 -8.73,15.75 -8.89,19.20 -9.05,22.65 -7.29,27.18 -5.53,31.71 -2.54,34.96 0.44,38.20 4.41,40.24 8.39,42.28 12.30,43.15 16.21,44.02 19.02,43.05 21.84,42.08 23.62,39.74 25.40,37.39 26.15,34.18 26.91,30.97 27.03,27.77 27.15,24.57 26.29,21.95 25.44,19.32 24.62,17.50 23.80,15.68 22.83,14.91 21.85,14.15 20.71,13.96 19.56,13.76 17.28,13.55 15.00,13.35 10.39,12.75 5.77,12.16 1.71,11.66 -2.34,11.16 -5.47,10.99 -8.60,10.83 -8.86,10.76 -9.13,10.69 -9.36,10.54 -9.59,10.39 -9.76,10.17 -9.93,9.95 -10.03,9.70 -10.12,9.44 -10.12,9.16 -10.13,8.88 -10.04,8.62 -9.96,8.36 -9.80,8.14 -9.64,7.91 -9.41,7.76 -9.18,7.60 -8.92,7.52 -8.66,7.44 -8.38,7.45 -8.11,7.46 -7.85,7.56 -7.59,7.66 -7.38,7.83 -7.16,8.00 -7.02,8.24 -6.87,8.47 -6.81,8.74 -6.74,9.01 -6.77,9.28 -6.79,9.56 -6.90,9.81 -7.02,10.06 -7.20,10.26 -7.39,10.47 -7.63,10.60 -7.87,10.73 -8.14,10.78 -8.41,10.83 -8.68,10.79 -8.96,10.75 -9.20,10.63 -9.45,10.50 -9.64,10.31 -9.83,10.11 -9.95,9.86 -10.08,9.61 -10.11,9.34 -10.14,9.07 -10.09,8.80 -10.04,8.53 -9.90,8.29 -9.76,8.05 -9.55,7.87 -9.35,7.69 -9.09,7.58 -8.84,7.47 -8.56,7.45 -8.29,7.43 -8.29,7.43 -8.29,7.43 -5.15,7.84 -2.00,8.24 2.06,8.68 6.14,9.12 10.69,9.63 15.25,10.14 17.92,10.31 20.59,10.48 22.24,11.17 23.88,11.87 25.04,13.20 26.20,14.54 27.08,16.54 27.95,18.54 28.86,21.58 29.78,24.63 29.63,28.12 29.47,31.61 28.49,35.28 27.50,38.95 25.18,41.71 22.86,44.47 19.34,45.54 15.82,46.61 11.49,45.64 7.17,44.66 2.83,42.36 -1.50,40.05 -4.77,36.40 -8.04,32.74 -9.92,27.69 -11.81,22.63 -11.67,19.04 -11.54,15.46 -11.20,12.04 -10.85,8.62 -9.93,5.58 -9.00,2.55 -7.29,0.83 -5.58,-0.88 -2.86,-1.22 -0.14,-1.56 0.04,-1.56 0.23,-1.55 0.41,-1.50 0.60,-1.45 0.76,-1.35 0.93,-1.26 1.07,-1.13 1.20,-1.00 1.31,-0.84 1.41,-0.68 1.47,-0.50 1.53,-0.33 1.55,-0.14 1.57,0.04 1.54,0.23 1.51,0.42 1.44,0.59 1.36,0.77 1.25,0.92 1.14,1.07 0.99,1.19 0.85,1.32 0.68,1.40 0.51,1.48 0.32,1.52 0.14,1.56 0.14,1.56 L 0.14,1.56 Z"></path>
    </g>
    <g transform="translate(669.3668108848447 236.887710080872) rotate(0 23.344042372941658 -58.5648782338713)"
       stroke="none">
        <path fill="#000000"
              d="M -1.43,-0.71 Q -1.43,-0.71 1.19,-5.87 3.81,-11.04 7.76,-19.33 11.70,-27.63 15.49,-37.70 19.27,-47.77 21.81,-58.34 24.35,-68.92 27.59,-78.46 30.82,-87.99 34.10,-95.14 37.38,-102.29 39.72,-106.75 42.06,-111.21 43.05,-113.09 44.04,-114.96 44.17,-115.14 44.30,-115.31 44.48,-115.43 44.66,-115.55 44.87,-115.61 45.07,-115.67 45.29,-115.66 45.51,-115.65 45.71,-115.57 45.91,-115.49 46.07,-115.35 46.24,-115.21 46.35,-115.03 46.46,-114.84 46.51,-114.63 46.56,-114.42 46.54,-114.21 46.51,-113.99 46.42,-113.80 46.33,-113.60 46.19,-113.44 46.04,-113.28 45.85,-113.18 45.66,-113.08 45.44,-113.04 45.23,-113.01 45.02,-113.04 44.80,-113.08 44.61,-113.18 44.42,-113.28 44.27,-113.43 44.12,-113.59 44.03,-113.79 43.94,-113.98 43.91,-114.20 43.89,-114.41 43.94,-114.62 43.98,-114.83 44.09,-115.02 44.20,-115.20 44.37,-115.35 44.53,-115.49 44.73,-115.57 44.93,-115.65 45.15,-115.66 45.36,-115.67 45.57,-115.62 45.78,-115.56 45.96,-115.44 46.14,-115.32 46.27,-115.15 46.40,-114.97 46.47,-114.77 46.54,-114.57 46.54,-114.35 46.54,-114.13 46.48,-113.93 46.41,-113.72 46.41,-113.72 46.41,-113.72 45.42,-111.84 44.44,-109.96 42.14,-105.56 39.84,-101.17 36.63,-94.14 33.42,-87.11 30.24,-77.69 27.07,-68.27 24.50,-57.52 21.94,-46.77 18.15,-36.58 14.36,-26.38 10.45,-18.03 6.54,-9.68 3.98,-4.48 1.43,0.71 1.32,0.87 1.21,1.03 1.07,1.16 0.93,1.29 0.76,1.39 0.59,1.48 0.41,1.53 0.22,1.58 0.03,1.58 -0.16,1.59 -0.35,1.55 -0.53,1.50 -0.71,1.42 -0.88,1.33 -1.03,1.21 -1.17,1.08 -1.29,0.92 -1.40,0.77 -1.47,0.59 -1.54,0.41 -1.57,0.22 -1.60,0.03 -1.58,-0.16 -1.56,-0.35 -1.49,-0.53 -1.43,-0.71 -1.43,-0.71 L -1.43,-0.71 Z"></path>
    </g>
    <g transform="translate(753.732999109862 58.32626315801963) rotate(0 -14.33406110619228 13.514971900124237)"
       stroke="none">
        <path fill="#000000"
              d="M -0.74,1.37 Q -0.74,1.37 -3.31,-0.06 -5.87,-1.50 -10.28,-2.29 -14.69,-3.07 -19.67,-2.78 -24.65,-2.49 -29.14,2.17 -33.62,6.85 -35.53,12.15 -37.45,17.45 -36.46,21.32 -35.48,25.19 -31.96,28.12 -28.44,31.04 -23.34,32.29 -18.23,33.54 -12.59,33.63 -6.95,33.73 -2.15,31.96 2.64,30.19 5.24,27.01 7.85,23.83 8.94,19.85 10.04,15.88 8.68,11.80 7.31,7.72 5.14,3.85 2.96,-0.01 1.11,-2.58 -0.73,-5.16 -1.79,-6.14 -2.85,-7.13 -4.46,-7.15 -6.07,-7.17 -6.37,-7.21 -6.67,-7.25 -6.93,-7.39 -7.20,-7.52 -7.41,-7.73 -7.62,-7.95 -7.75,-8.22 -7.88,-8.48 -7.92,-8.78 -7.96,-9.08 -7.90,-9.37 -7.84,-9.66 -7.69,-9.92 -7.54,-10.18 -7.32,-10.38 -7.10,-10.58 -6.82,-10.69 -6.55,-10.81 -6.25,-10.83 -5.95,-10.85 -5.66,-10.78 -5.37,-10.71 -5.12,-10.54 -4.87,-10.38 -4.68,-10.15 -4.50,-9.91 -4.40,-9.63 -4.30,-9.35 -4.29,-9.05 -4.28,-8.75 -4.37,-8.47 -4.46,-8.18 -4.64,-7.94 -4.81,-7.70 -5.06,-7.53 -5.30,-7.35 -5.59,-7.27 -5.88,-7.18 -6.17,-7.19 -6.47,-7.20 -6.75,-7.31 -7.03,-7.41 -7.26,-7.60 -7.50,-7.79 -7.66,-8.04 -7.81,-8.30 -7.88,-8.59 -7.95,-8.88 -7.93,-9.17 -7.90,-9.47 -7.78,-9.75 -7.66,-10.02 -7.46,-10.24 -7.26,-10.46 -7.00,-10.61 -6.74,-10.75 -6.44,-10.81 -6.15,-10.86 -6.15,-10.86 -6.15,-10.86 -4.24,-10.74 -2.33,-10.62 -1.48,-9.91 -0.62,-9.21 0.38,-7.95 1.40,-6.69 3.33,-3.99 5.26,-1.29 7.54,2.81 9.83,6.92 11.20,11.64 12.57,16.36 11.24,20.90 9.91,25.45 6.80,29.01 3.69,32.57 -1.62,34.47 -6.93,36.37 -12.91,36.25 -18.88,36.12 -24.48,34.63 -30.08,33.13 -34.01,29.61 -37.94,26.08 -38.98,21.43 -40.02,16.77 -37.83,10.88 -35.64,4.99 -30.47,-0.05 -25.29,-5.09 -19.74,-5.50 -14.20,-5.92 -9.34,-5.03 -4.48,-4.14 -1.87,-2.75 0.74,-1.37 0.90,-1.26 1.05,-1.15 1.17,-1.00 1.29,-0.86 1.38,-0.69 1.46,-0.53 1.51,-0.34 1.55,-0.16 1.55,0.02 1.54,0.21 1.49,0.39 1.45,0.57 1.36,0.74 1.27,0.90 1.14,1.04 1.01,1.18 0.86,1.29 0.70,1.39 0.52,1.45 0.34,1.52 0.16,1.54 -0.02,1.56 -0.21,1.53 -0.39,1.51 -0.57,1.44 -0.74,1.37 -0.74,1.37 L -0.74,1.37 Z"></path>
    </g>
    <g transform="translate(99.28072346142616 284.3948840328236) rotate(0 22.934497769907637 -36.85901427306584)"
       stroke="none">
        <path fill="#000000"
              d="M -1.24,-0.96 Q -1.24,-0.96 2.07,-5.18 5.40,-9.40 9.41,-14.48 13.43,-19.56 16.75,-24.73 20.07,-29.89 22.65,-34.65 25.24,-39.41 27.28,-43.77 29.31,-48.13 30.88,-52.30 32.44,-56.47 34.33,-60.00 36.22,-63.52 38.24,-66.25 40.25,-68.97 42.04,-71.34 43.82,-73.71 44.01,-73.88 44.20,-74.05 44.44,-74.15 44.68,-74.25 44.93,-74.27 45.19,-74.29 45.43,-74.22 45.68,-74.16 45.90,-74.02 46.11,-73.88 46.27,-73.68 46.43,-73.48 46.51,-73.24 46.60,-73.00 46.61,-72.74 46.61,-72.48 46.53,-72.24 46.45,-72.00 46.30,-71.79 46.15,-71.58 45.94,-71.44 45.73,-71.29 45.49,-71.22 45.24,-71.14 44.99,-71.15 44.73,-71.16 44.49,-71.25 44.25,-71.34 44.05,-71.50 43.86,-71.67 43.72,-71.88 43.58,-72.10 43.53,-72.35 43.47,-72.60 43.49,-72.85 43.51,-73.11 43.62,-73.34 43.72,-73.58 43.89,-73.77 44.06,-73.95 44.29,-74.08 44.51,-74.20 44.76,-74.25 45.02,-74.29 45.27,-74.26 45.52,-74.22 45.75,-74.10 45.98,-73.99 46.16,-73.81 46.34,-73.62 46.45,-73.39 46.56,-73.16 46.59,-72.91 46.63,-72.65 46.57,-72.40 46.52,-72.15 46.40,-71.93 46.27,-71.71 46.27,-71.71 46.27,-71.71 44.33,-69.54 42.40,-67.37 40.49,-64.81 38.58,-62.25 36.78,-58.89 34.97,-55.53 33.38,-51.25 31.79,-46.97 29.74,-42.53 27.68,-38.09 25.07,-33.23 22.45,-28.36 19.09,-23.07 15.72,-17.77 11.75,-12.66 7.78,-7.55 4.51,-3.29 1.24,0.96 1.11,1.10 0.97,1.23 0.81,1.33 0.65,1.43 0.47,1.49 0.28,1.55 0.10,1.56 -0.08,1.57 -0.27,1.54 -0.46,1.50 -0.63,1.43 -0.81,1.35 -0.96,1.23 -1.11,1.12 -1.23,0.97 -1.34,0.82 -1.42,0.64 -1.50,0.47 -1.54,0.28 -1.57,0.10 -1.56,-0.08 -1.55,-0.27 -1.49,-0.46 -1.44,-0.64 -1.34,-0.80 -1.24,-0.96 -1.24,-0.96 L -1.24,-0.96 Z"></path>
    </g>
    <g transform="translate(183.64691168644353 150.88334344371845) rotate(0 -15.153150312260408 13.924516503158173)"
       stroke="none">
        <path fill="#000000"
              d="M -0.21,1.54 Q -0.21,1.54 -5.38,0.80 -10.55,0.06 -16.13,0.45 -21.70,0.83 -27.22,3.05 -32.74,5.27 -36.61,8.90 -40.49,12.54 -42.07,16.67 -43.66,20.80 -42.83,23.87 -42.01,26.94 -38.33,28.85 -34.65,30.77 -25.45,31.87 -16.24,32.98 -8.61,32.30 -0.97,31.62 3.97,29.79 8.92,27.95 10.85,24.57 12.78,21.19 12.71,17.39 12.64,13.59 10.36,10.00 8.09,6.42 5.05,3.23 2.01,0.04 0.01,-1.79 -1.98,-3.63 -4.02,-5.15 -6.06,-6.67 -6.24,-6.83 -6.41,-6.98 -6.53,-7.19 -6.65,-7.39 -6.70,-7.62 -6.75,-7.85 -6.72,-8.09 -6.69,-8.32 -6.58,-8.54 -6.48,-8.75 -6.32,-8.92 -6.15,-9.09 -5.94,-9.19 -5.73,-9.30 -5.50,-9.34 -5.26,-9.37 -5.03,-9.33 -4.80,-9.29 -4.59,-9.17 -4.39,-9.06 -4.23,-8.88 -4.07,-8.71 -3.97,-8.49 -3.88,-8.28 -3.85,-8.04 -3.83,-7.81 -3.89,-7.58 -3.94,-7.35 -4.07,-7.15 -4.19,-6.95 -4.37,-6.80 -4.56,-6.65 -4.78,-6.56 -5.00,-6.48 -5.23,-6.47 -5.47,-6.46 -5.69,-6.53 -5.92,-6.60 -6.11,-6.73 -6.31,-6.87 -6.45,-7.06 -6.59,-7.25 -6.66,-7.47 -6.73,-7.70 -6.73,-7.93 -6.72,-8.17 -6.64,-8.39 -6.57,-8.61 -6.42,-8.80 -6.27,-8.99 -6.08,-9.12 -5.88,-9.24 -5.65,-9.30 -5.42,-9.36 -5.19,-9.35 -4.95,-9.33 -4.73,-9.24 -4.51,-9.15 -4.51,-9.15 -4.51,-9.15 -2.35,-7.36 -0.19,-5.57 1.86,-3.66 3.93,-1.76 7.13,1.64 10.33,5.04 12.78,9.21 15.22,13.39 15.16,17.87 15.09,22.35 12.61,26.27 10.13,30.19 4.70,32.23 -0.72,34.26 -8.64,34.94 -16.56,35.62 -26.23,34.38 -35.90,33.13 -40.06,30.63 -44.22,28.13 -45.22,24.12 -46.22,20.12 -44.33,15.37 -42.44,10.62 -38.14,6.65 -33.84,2.69 -27.90,0.32 -21.95,-2.03 -16.05,-2.46 -10.16,-2.89 -4.97,-2.22 0.21,-1.54 0.39,-1.50 0.57,-1.45 0.74,-1.36 0.90,-1.27 1.04,-1.14 1.18,-1.01 1.28,-0.86 1.39,-0.70 1.45,-0.52 1.52,-0.35 1.54,-0.16 1.56,0.02 1.53,0.20 1.51,0.39 1.44,0.57 1.37,0.74 1.26,0.89 1.15,1.05 1.01,1.17 0.86,1.29 0.70,1.38 0.53,1.46 0.34,1.51 0.16,1.55 -0.02,1.55 -0.21,1.54 -0.21,1.54 L -0.21,1.54 Z"></path>
    </g>
    <g transform="translate(132.04429170415133 314.7011846573444) rotate(0 84.77573282805145 -13.924516503158202)"
       stroke="none">
        <path fill="#000000"
              d="M -0.06,-1.56 Q -0.06,-1.56 6.06,-1.76 12.18,-1.96 21.03,-3.67 29.88,-5.38 41.92,-7.99 53.96,-10.59 67.55,-13.81 81.14,-17.03 93.78,-19.35 106.43,-21.66 117.24,-23.12 128.05,-24.57 138.31,-25.43 148.58,-26.28 154.35,-26.64 160.13,-27.00 162.81,-27.15 165.50,-27.30 166.45,-27.86 167.41,-28.41 167.57,-28.58 167.72,-28.74 167.93,-28.85 168.13,-28.95 168.35,-28.99 168.58,-29.03 168.80,-28.99 169.03,-28.95 169.23,-28.84 169.43,-28.73 169.59,-28.57 169.74,-28.40 169.84,-28.19 169.93,-27.99 169.96,-27.76 169.98,-27.53 169.93,-27.31 169.88,-27.09 169.76,-26.89 169.64,-26.70 169.47,-26.55 169.29,-26.40 169.08,-26.32 168.87,-26.24 168.64,-26.23 168.41,-26.21 168.19,-26.28 167.97,-26.34 167.78,-26.47 167.59,-26.60 167.46,-26.78 167.32,-26.96 167.25,-27.18 167.18,-27.40 167.18,-27.62 167.18,-27.85 167.25,-28.07 167.33,-28.28 167.47,-28.46 167.61,-28.65 167.80,-28.77 167.99,-28.90 168.21,-28.96 168.43,-29.02 168.65,-29.01 168.88,-28.99 169.09,-28.91 169.30,-28.82 169.48,-28.67 169.65,-28.52 169.77,-28.33 169.88,-28.13 169.93,-27.91 169.98,-27.68 169.95,-27.46 169.93,-27.23 169.83,-27.02 169.73,-26.82 169.73,-26.82 169.73,-26.82 167.70,-25.74 165.66,-24.65 162.98,-24.50 160.29,-24.34 154.55,-23.97 148.80,-23.61 138.60,-22.75 128.41,-21.90 117.67,-20.44 106.92,-18.98 94.35,-16.66 81.78,-14.34 68.17,-11.09 54.56,-7.84 42.50,-5.19 30.44,-2.54 21.37,-0.76 12.30,1.02 6.18,1.29 0.06,1.56 -0.12,1.54 -0.31,1.53 -0.49,1.47 -0.67,1.41 -0.83,1.30 -0.99,1.20 -1.12,1.07 -1.25,0.93 -1.34,0.77 -1.43,0.60 -1.49,0.42 -1.54,0.24 -1.54,0.05 -1.55,-0.12 -1.51,-0.31 -1.48,-0.49 -1.39,-0.66 -1.31,-0.83 -1.19,-0.98 -1.08,-1.12 -0.92,-1.24 -0.77,-1.35 -0.60,-1.42 -0.43,-1.50 -0.24,-1.53 -0.05,-1.56 -0.05,-1.56 L -0.06,-1.56 Z"></path>
    </g>
    <g transform="translate(341.7311284575926 231.9731748444633) rotate(0 6.9622582515790725 24.163131579009814)"
       stroke="none">
        <path fill="#000000"
              d="M 0.09,1.55 Q 0.09,1.55 -3.66,1.75 -7.42,1.95 -11.65,3.40 -15.88,4.84 -19.42,7.91 -22.96,10.98 -25.34,16.57 -27.72,22.17 -27.85,26.90 -27.99,31.63 -24.91,35.31 -21.83,38.99 -15.53,41.23 -9.23,43.48 -1.41,44.48 6.41,45.48 14.41,45.44 22.41,45.41 28.50,43.77 34.60,42.14 37.73,39.94 40.85,37.73 41.86,34.77 42.86,31.80 41.28,28.39 39.70,24.99 35.87,21.71 32.05,18.43 27.41,15.85 22.78,13.27 17.87,12.21 12.96,11.14 9.90,10.67 6.84,10.20 5.08,10.35 3.32,10.50 3.07,10.47 2.83,10.43 2.61,10.32 2.39,10.21 2.22,10.04 2.05,9.87 1.94,9.65 1.83,9.43 1.80,9.18 1.77,8.94 1.81,8.70 1.86,8.46 1.98,8.24 2.10,8.03 2.29,7.87 2.47,7.71 2.69,7.61 2.92,7.51 3.16,7.49 3.41,7.47 3.65,7.53 3.88,7.59 4.09,7.73 4.30,7.86 4.45,8.05 4.60,8.24 4.69,8.47 4.77,8.70 4.78,8.95 4.78,9.20 4.71,9.43 4.64,9.66 4.49,9.86 4.35,10.06 4.15,10.20 3.95,10.35 3.71,10.42 3.48,10.49 3.23,10.48 2.99,10.47 2.76,10.39 2.53,10.30 2.34,10.15 2.15,9.99 2.02,9.79 1.89,9.58 1.83,9.34 1.77,9.10 1.79,8.86 1.81,8.61 1.91,8.39 2.01,8.16 2.17,7.98 2.34,7.80 2.55,7.68 2.76,7.56 3.00,7.52 3.25,7.47 3.24,7.47 3.24,7.47 5.24,7.53 7.23,7.60 10.38,8.09 13.53,8.57 18.78,9.77 24.03,10.97 28.90,13.71 33.77,16.45 37.91,20.15 42.05,23.86 43.69,28.02 45.33,32.17 43.94,35.92 42.55,39.66 38.94,42.17 35.33,44.67 28.89,46.37 22.45,48.06 14.26,48.09 6.07,48.12 -2.03,47.06 -10.14,46.00 -16.96,43.40 -23.77,40.79 -27.17,36.39 -30.57,31.98 -30.42,26.56 -30.28,21.14 -27.57,15.04 -24.87,8.94 -20.88,5.54 -16.89,2.14 -12.26,0.56 -7.64,-1.01 -3.87,-1.28 -0.09,-1.55 0.09,-1.54 0.27,-1.53 0.45,-1.48 0.63,-1.42 0.79,-1.32 0.96,-1.23 1.09,-1.09 1.22,-0.96 1.32,-0.80 1.42,-0.64 1.47,-0.46 1.53,-0.28 1.54,-0.09 1.55,0.09 1.52,0.27 1.49,0.46 1.41,0.63 1.33,0.80 1.22,0.95 1.10,1.10 0.95,1.21 0.81,1.33 0.63,1.41 0.46,1.49 0.28,1.52 0.09,1.55 0.09,1.55 L 0.09,1.55 Z"></path>
    </g>
    <g transform="translate(479.3381150770384 130.40611329201516) rotate(0 -20.886774754737303 15.562694915294458)"
       stroke="none">
        <path fill="#000000"
              d="M -0.31,1.52 Q -0.31,1.52 -5.95,0.31 -11.58,-0.89 -16.80,-0.23 -22.01,0.42 -26.68,2.96 -31.35,5.50 -34.67,9.51 -37.98,13.52 -39.85,17.69 -41.71,21.86 -41.48,25.06 -41.26,28.26 -38.04,29.79 -34.83,31.32 -29.88,31.32 -24.93,31.33 -20.06,29.97 -15.19,28.61 -10.84,26.21 -6.49,23.80 -3.80,20.77 -1.12,17.75 -0.02,14.98 1.06,12.22 0.75,10.04 0.44,7.86 -2.11,6.76 -4.67,5.67 -6.88,5.13 -9.08,4.60 -11.27,5.04 -13.47,5.49 -13.72,5.48 -13.97,5.47 -14.20,5.38 -14.44,5.29 -14.63,5.14 -14.83,4.98 -14.96,4.77 -15.09,4.55 -15.15,4.31 -15.21,4.07 -15.19,3.82 -15.17,3.57 -15.07,3.34 -14.97,3.11 -14.80,2.92 -14.63,2.74 -14.41,2.62 -14.19,2.49 -13.94,2.45 -13.70,2.40 -13.45,2.44 -13.20,2.47 -12.98,2.59 -12.75,2.70 -12.58,2.88 -12.40,3.05 -12.29,3.28 -12.18,3.51 -12.15,3.75 -12.12,4.00 -12.17,4.25 -12.21,4.49 -12.34,4.71 -12.46,4.93 -12.65,5.10 -12.84,5.26 -13.07,5.36 -13.30,5.46 -13.55,5.48 -13.80,5.49 -14.04,5.43 -14.29,5.37 -14.50,5.23 -14.71,5.10 -14.86,4.90 -15.02,4.70 -15.10,4.47 -15.19,4.23 -15.19,3.98 -15.20,3.73 -15.12,3.49 -15.05,3.25 -14.90,3.05 -14.75,2.85 -14.55,2.70 -14.35,2.56 -14.11,2.49 -13.87,2.41 -13.87,2.41 -13.87,2.41 -11.19,2.23 -8.52,2.04 -6.01,2.67 -3.51,3.31 -0.53,4.97 2.44,6.63 2.99,9.82 3.53,13.01 2.20,16.24 0.87,19.47 -2.15,22.78 -5.17,26.09 -9.82,28.63 -14.47,31.17 -19.70,32.58 -24.93,33.99 -30.44,33.85 -35.95,33.72 -39.63,31.60 -43.30,29.47 -43.76,25.20 -44.23,20.92 -42.17,16.34 -40.12,11.77 -36.43,7.42 -32.75,3.06 -27.59,0.32 -22.44,-2.42 -16.73,-3.12 -11.02,-3.81 -5.35,-2.67 0.31,-1.52 0.49,-1.46 0.67,-1.40 0.83,-1.30 0.99,-1.20 1.12,-1.06 1.25,-0.93 1.34,-0.76 1.43,-0.60 1.49,-0.42 1.54,-0.24 1.54,-0.05 1.55,0.13 1.51,0.31 1.47,0.50 1.39,0.67 1.31,0.84 1.19,0.98 1.07,1.13 0.92,1.24 0.77,1.35 0.60,1.42 0.42,1.50 0.24,1.53 0.05,1.56 -0.13,1.54 -0.31,1.52 -0.31,1.52 L -0.31,1.52 Z"></path>
    </g>
    <g transform="translate(587.4578902780316 263.9176538811203) rotate(0 -49.145352364087785 -38.497192685202094)"
       stroke="none">
        <path fill="#000000"
              d="M -1.22,1.00 Q -1.22,1.00 -3.31,-1.61 -5.40,-4.22 -9.07,-8.12 -12.74,-12.03 -18.28,-17.21 -23.83,-22.39 -30.87,-28.12 -37.90,-33.84 -46.07,-40.04 -54.24,-46.24 -62.65,-52.41 -71.07,-58.58 -77.90,-62.83 -84.73,-67.08 -88.83,-69.60 -92.92,-72.13 -94.67,-73.18 -96.42,-74.24 -96.59,-74.39 -96.76,-74.53 -96.87,-74.72 -96.98,-74.91 -97.03,-75.13 -97.07,-75.34 -97.05,-75.56 -97.02,-75.78 -96.93,-75.98 -96.83,-76.18 -96.68,-76.34 -96.53,-76.50 -96.33,-76.60 -96.13,-76.70 -95.91,-76.74 -95.70,-76.77 -95.48,-76.73 -95.26,-76.70 -95.07,-76.59 -94.87,-76.48 -94.72,-76.32 -94.57,-76.16 -94.48,-75.96 -94.39,-75.76 -94.37,-75.54 -94.35,-75.32 -94.40,-75.10 -94.45,-74.89 -94.56,-74.70 -94.68,-74.51 -94.85,-74.37 -95.02,-74.23 -95.22,-74.15 -95.43,-74.07 -95.65,-74.06 -95.87,-74.05 -96.08,-74.11 -96.30,-74.17 -96.48,-74.30 -96.66,-74.42 -96.79,-74.60 -96.92,-74.78 -96.99,-74.99 -97.06,-75.20 -97.06,-75.42 -97.06,-75.64 -96.98,-75.85 -96.91,-76.06 -96.77,-76.23 -96.64,-76.41 -96.45,-76.53 -96.27,-76.65 -96.06,-76.71 -95.84,-76.76 -95.62,-76.75 -95.40,-76.74 -95.20,-76.65 -94.99,-76.57 -94.99,-76.57 -94.99,-76.57 -93.26,-75.48 -91.53,-74.40 -87.42,-71.88 -83.31,-69.36 -76.39,-65.06 -69.47,-60.77 -61.03,-54.60 -52.59,-48.42 -44.37,-42.21 -36.16,-36.00 -29.03,-30.23 -21.90,-24.47 -16.26,-19.25 -10.63,-14.03 -6.85,-10.08 -3.07,-6.13 -0.92,-3.56 1.22,-1.00 1.32,-0.84 1.42,-0.67 1.48,-0.49 1.54,-0.31 1.56,-0.12 1.58,0.06 1.55,0.25 1.51,0.43 1.44,0.61 1.37,0.78 1.25,0.94 1.14,1.09 0.99,1.21 0.84,1.33 0.67,1.41 0.50,1.50 0.31,1.53 0.12,1.57 -0.06,1.56 -0.25,1.56 -0.43,1.50 -0.61,1.45 -0.78,1.36 -0.94,1.26 -1.08,1.13 -1.22,1.00 -1.22,1.00 L -1.22,1.00 Z"></path>
    </g>
    <g transform="translate(369.580161463909 220.50592595950945) rotate(0 -5.7336244424768665 -54.46943220353063)"
       stroke="none">
        <path fill="#000000"
              d="M -1.64,0.15 Q -1.64,0.15 -2.07,-4.79 -2.49,-9.74 -2.66,-16.84 -2.83,-23.94 -2.89,-32.36 -2.95,-40.79 -3.44,-49.27 -3.93,-57.76 -4.83,-65.34 -5.74,-72.92 -7.06,-79.65 -8.37,-86.37 -9.40,-91.36 -10.43,-96.36 -11.10,-99.66 -11.77,-102.97 -12.30,-105.30 -12.83,-107.63 -12.83,-107.89 -12.83,-108.14 -12.75,-108.38 -12.67,-108.62 -12.52,-108.83 -12.37,-109.03 -12.16,-109.17 -11.96,-109.32 -11.71,-109.39 -11.47,-109.46 -11.22,-109.45 -10.96,-109.44 -10.73,-109.35 -10.49,-109.26 -10.29,-109.09 -10.10,-108.93 -9.97,-108.72 -9.83,-108.50 -9.77,-108.25 -9.72,-108.01 -9.74,-107.75 -9.77,-107.50 -9.87,-107.27 -9.97,-107.04 -10.15,-106.85 -10.32,-106.67 -10.54,-106.55 -10.76,-106.42 -11.01,-106.38 -11.26,-106.34 -11.51,-106.38 -11.77,-106.41 -11.99,-106.53 -12.22,-106.65 -12.39,-106.83 -12.57,-107.01 -12.68,-107.24 -12.79,-107.47 -12.82,-107.72 -12.85,-107.97 -12.80,-108.22 -12.74,-108.47 -12.62,-108.69 -12.49,-108.91 -12.30,-109.07 -12.10,-109.24 -11.87,-109.33 -11.64,-109.43 -11.38,-109.45 -11.13,-109.46 -10.88,-109.40 -10.64,-109.33 -10.43,-109.19 -10.22,-109.05 -10.06,-108.85 -9.90,-108.65 -9.82,-108.41 -9.74,-108.17 -9.74,-108.18 -9.74,-108.18 -9.44,-105.84 -9.15,-103.50 -8.47,-100.20 -7.79,-96.91 -6.74,-91.90 -5.70,-86.90 -4.34,-80.08 -2.99,-73.26 -2.05,-65.59 -1.11,-57.93 -0.59,-49.37 -0.06,-40.82 0.04,-32.42 0.15,-24.02 0.38,-17.03 0.61,-10.03 1.13,-5.09 1.64,-0.15 1.64,0.04 1.63,0.24 1.58,0.43 1.53,0.62 1.43,0.80 1.33,0.97 1.20,1.12 1.06,1.26 0.89,1.37 0.73,1.48 0.54,1.55 0.35,1.61 0.15,1.63 -0.04,1.65 -0.24,1.62 -0.43,1.59 -0.62,1.52 -0.80,1.44 -0.96,1.32 -1.13,1.21 -1.25,1.05 -1.38,0.90 -1.47,0.72 -1.56,0.54 -1.60,0.35 -1.64,0.15 -1.64,0.15 L -1.64,0.15 Z"></path>
    </g>
    <g transform="translate(394.1528376459529 25.562694915294514) rotate(0 -32.354023639691064 13.105427297090046)"
       stroke="none">
        <path fill="#000000"
              d="M -1.31,0.83 Q -1.31,0.83 -2.86,-1.71 -4.41,-4.26 -7.63,-5.37 -10.85,-6.49 -15.92,-7.04 -21.00,-7.59 -27.24,-5.97 -33.49,-4.36 -40.58,-0.90 -47.68,2.56 -53.93,7.50 -60.17,12.45 -63.69,17.48 -67.20,22.52 -68.05,26.77 -68.91,31.03 -65.66,33.68 -62.41,36.32 -55.58,37.45 -48.76,38.59 -40.22,38.42 -31.68,38.24 -21.30,35.83 -10.93,33.43 -5.46,30.59 0.00,27.75 2.16,24.74 4.32,21.74 3.39,18.10 2.47,14.46 -0.83,10.41 -4.14,6.35 -8.80,2.50 -13.46,-1.34 -17.78,-4.15 -22.09,-6.96 -25.12,-8.88 -28.15,-10.79 -30.10,-11.81 -32.05,-12.84 -33.39,-13.16 -34.72,-13.47 -35.90,-12.68 -37.08,-11.90 -37.35,-11.82 -37.61,-11.75 -37.88,-11.77 -38.15,-11.79 -38.40,-11.89 -38.65,-11.99 -38.86,-12.17 -39.07,-12.34 -39.21,-12.58 -39.35,-12.81 -39.40,-13.08 -39.46,-13.34 -39.43,-13.61 -39.40,-13.88 -39.28,-14.13 -39.17,-14.38 -38.98,-14.57 -38.79,-14.77 -38.55,-14.89 -38.31,-15.02 -38.04,-15.06 -37.77,-15.11 -37.50,-15.06 -37.24,-15.01 -37.00,-14.89 -36.76,-14.76 -36.57,-14.56 -36.39,-14.36 -36.27,-14.11 -36.16,-13.87 -36.13,-13.60 -36.10,-13.32 -36.16,-13.06 -36.22,-12.79 -36.36,-12.56 -36.51,-12.33 -36.71,-12.16 -36.92,-11.98 -37.18,-11.88 -37.43,-11.78 -37.70,-11.77 -37.97,-11.76 -38.23,-11.83 -38.49,-11.90 -38.72,-12.06 -38.94,-12.21 -39.11,-12.43 -39.27,-12.65 -39.36,-12.90 -39.44,-13.16 -39.44,-13.43 -39.44,-13.71 -39.35,-13.96 -39.26,-14.22 -39.10,-14.44 -38.93,-14.65 -38.70,-14.80 -38.48,-14.95 -38.48,-14.95 -38.48,-14.95 -36.43,-15.64 -34.39,-16.32 -32.61,-15.75 -30.84,-15.17 -28.79,-14.09 -26.75,-13.01 -23.70,-11.09 -20.66,-9.16 -16.22,-6.26 -11.79,-3.36 -6.94,0.67 -2.09,4.71 1.44,9.25 4.99,13.79 5.79,18.19 6.60,22.58 3.96,26.29 1.31,30.00 -4.50,33.00 -10.32,35.99 -20.97,38.43 -31.62,40.88 -40.42,41.04 -49.22,41.20 -56.59,39.80 -63.97,38.40 -67.54,35.08 -71.11,31.76 -70.27,26.42 -69.44,21.08 -65.65,15.71 -61.87,10.35 -55.38,5.23 -48.89,0.12 -41.53,-3.46 -34.18,-7.04 -27.47,-8.71 -20.76,-10.38 -15.30,-9.79 -9.84,-9.20 -6.01,-7.65 -2.18,-6.10 -0.43,-3.47 1.31,-0.83 1.39,-0.66 1.48,-0.49 1.51,-0.31 1.55,-0.13 1.54,0.05 1.54,0.24 1.49,0.42 1.43,0.60 1.34,0.77 1.25,0.93 1.12,1.07 0.99,1.20 0.83,1.30 0.67,1.40 0.49,1.46 0.31,1.52 0.12,1.54 -0.05,1.56 -0.24,1.53 -0.43,1.50 -0.60,1.42 -0.77,1.35 -0.92,1.24 -1.07,1.12 -1.19,0.98 -1.31,0.83 -1.31,0.83 L -1.31,0.83 Z"></path>
    </g>
    <g transform="translate(396.61010526415737 74.7080472793823) rotate(0 38.087648082168016 15.153150312260436)"
       stroke="none">
        <path fill="#000000"
              d="M 0.60,-1.80 Q 0.60,-1.80 5.52,-0.08 10.44,1.64 17.44,3.80 24.45,5.96 32.37,8.31 40.29,10.66 47.70,13.33 55.11,16.01 60.66,18.59 66.20,21.16 69.29,22.99 72.39,24.82 73.80,25.80 75.22,26.78 75.07,27.86 74.92,28.93 75.06,29.07 75.20,29.21 75.30,29.38 75.40,29.54 75.46,29.73 75.53,29.92 75.54,30.11 75.55,30.31 75.52,30.50 75.49,30.70 75.41,30.88 75.33,31.06 75.21,31.21 75.09,31.37 74.93,31.49 74.78,31.61 74.60,31.70 74.42,31.78 74.23,31.82 74.04,31.85 73.84,31.84 73.65,31.83 73.46,31.78 73.27,31.72 73.10,31.62 72.93,31.52 73.44,31.69 73.95,31.86 73.69,31.82 73.43,31.78 73.19,31.66 72.96,31.54 72.77,31.35 72.59,31.16 72.47,30.92 72.36,30.69 72.33,30.42 72.30,30.16 72.35,29.90 72.40,29.64 72.53,29.42 72.67,29.19 72.87,29.02 73.06,28.84 73.31,28.74 73.55,28.64 73.81,28.62 74.08,28.60 74.33,28.67 74.59,28.74 74.81,28.88 75.03,29.03 75.19,29.24 75.35,29.44 75.44,29.69 75.53,29.94 75.53,30.20 75.54,30.47 75.46,30.72 75.38,30.97 75.22,31.18 75.06,31.39 74.85,31.55 74.63,31.70 74.38,31.77 74.12,31.84 73.86,31.83 73.60,31.82 73.35,31.73 73.10,31.64 72.90,31.47 72.70,31.30 72.56,31.08 72.42,30.85 72.36,30.59 72.30,30.34 72.32,30.08 72.35,29.81 72.46,29.57 72.56,29.33 72.74,29.14 72.92,28.94 73.15,28.82 73.38,28.69 74.15,28.81 74.92,28.93 75.06,29.07 75.20,29.21 75.30,29.38 75.40,29.54 75.46,29.73 75.53,29.92 75.54,30.11 75.55,30.31 75.52,30.50 75.49,30.70 75.41,30.88 75.33,31.06 75.21,31.21 75.09,31.37 74.93,31.49 74.78,31.61 74.60,31.70 74.42,31.78 74.23,31.82 74.04,31.85 73.84,31.84 73.65,31.83 73.46,31.78 73.27,31.72 73.10,31.62 72.93,31.52 73.12,30.39 73.30,29.25 72.13,28.24 70.97,27.24 67.98,25.50 65.00,23.77 59.56,21.28 54.12,18.80 46.77,16.21 39.43,13.62 31.47,11.35 23.51,9.08 16.42,7.01 9.33,4.95 4.36,3.37 -0.60,1.80 -0.80,1.70 -1.01,1.60 -1.19,1.46 -1.37,1.31 -1.51,1.13 -1.64,0.95 -1.73,0.74 -1.82,0.53 -1.86,0.30 -1.90,0.07 -1.88,-0.15 -1.86,-0.38 -1.79,-0.59 -1.72,-0.81 -1.59,-1.00 -1.47,-1.20 -1.30,-1.36 -1.14,-1.52 -0.94,-1.63 -0.74,-1.75 -0.52,-1.81 -0.30,-1.87 -0.07,-1.88 0.15,-1.89 0.37,-1.85 0.60,-1.80 0.60,-1.80 L 0.60,-1.80 Z"></path>
    </g>
    <g transform="translate(206.9973718210135 706.9750233220577) rotate(0 63.00861310860702 -18.84369737827501)"
       stroke="none">
        <path fill="#000000"
              d="M -0.26,-1.71 Q -0.26,-1.71 4.14,-2.33 8.55,-2.95 18.13,-5.55 27.71,-8.15 40.61,-11.95 53.51,-15.76 67.13,-19.74 80.75,-23.72 91.96,-27.10 103.16,-30.47 109.25,-32.57 115.34,-34.67 119.44,-36.53 123.54,-38.38 123.80,-38.44 124.05,-38.50 124.31,-38.48 124.56,-38.46 124.80,-38.35 125.04,-38.25 125.23,-38.07 125.42,-37.90 125.55,-37.67 125.68,-37.45 125.72,-37.19 125.77,-36.94 125.73,-36.68 125.70,-36.42 125.58,-36.19 125.46,-35.96 125.28,-35.78 125.09,-35.60 124.86,-35.48 124.63,-35.37 124.37,-35.33 124.11,-35.30 123.86,-35.35 123.60,-35.40 123.38,-35.53 123.15,-35.66 122.98,-35.86 122.81,-36.05 122.71,-36.29 122.61,-36.53 122.59,-36.79 122.57,-37.05 122.63,-37.30 122.70,-37.55 122.84,-37.77 122.98,-37.98 123.18,-38.14 123.39,-38.30 123.63,-38.39 123.88,-38.48 124.14,-38.49 124.39,-38.49 124.64,-38.41 124.89,-38.33 125.10,-38.18 125.31,-38.03 125.46,-37.82 125.61,-37.61 125.68,-37.36 125.76,-37.11 125.75,-36.85 125.74,-36.59 125.65,-36.35 125.56,-36.10 125.39,-35.90 125.23,-35.70 125.01,-35.56 124.79,-35.43 124.79,-35.43 124.79,-35.43 120.52,-33.75 116.24,-32.07 110.11,-29.93 103.97,-27.79 92.76,-24.38 81.56,-20.97 67.96,-16.95 54.35,-12.93 41.44,-9.06 28.52,-5.18 18.78,-2.47 9.05,0.24 4.65,0.98 0.26,1.71 0.05,1.72 -0.15,1.72 -0.35,1.68 -0.56,1.64 -0.75,1.54 -0.93,1.45 -1.10,1.32 -1.26,1.19 -1.38,1.02 -1.50,0.85 -1.58,0.66 -1.67,0.46 -1.70,0.26 -1.73,0.05 -1.71,-0.15 -1.69,-0.36 -1.62,-0.55 -1.56,-0.75 -1.44,-0.93 -1.33,-1.10 -1.18,-1.25 -1.03,-1.39 -0.84,-1.49 -0.66,-1.60 -0.46,-1.65 -0.26,-1.71 -0.26,-1.71 L -0.26,-1.71 Z"></path>
    </g>
    <g transform="translate(371.87972388091976 618.6451918613936) rotate(0 11.777310861421824 18.84369737827501)"
       stroke="none">
        <path fill="#000000"
              d="M 0.25,1.54 Q 0.25,1.54 -1.73,1.85 -3.73,2.15 -6.35,4.17 -8.96,6.20 -12.15,9.39 -15.33,12.57 -17.26,17.78 -19.19,22.99 -19.22,26.45 -19.25,29.90 -15.33,31.67 -11.40,33.44 -3.77,34.25 3.85,35.06 12.87,35.09 21.89,35.12 28.98,33.82 36.06,32.51 38.81,30.17 41.56,27.82 41.75,24.83 41.93,21.84 38.81,18.68 35.69,15.53 30.10,13.16 24.52,10.80 18.74,9.08 12.97,7.37 8.46,6.60 3.95,5.84 2.36,4.39 0.78,2.95 0.65,2.75 0.52,2.56 0.46,2.33 0.40,2.11 0.41,1.87 0.42,1.64 0.51,1.43 0.60,1.21 0.75,1.03 0.90,0.86 1.11,0.74 1.31,0.62 1.54,0.57 1.76,0.52 2.00,0.55 2.23,0.57 2.44,0.67 2.65,0.77 2.82,0.94 2.99,1.10 3.09,1.30 3.20,1.51 3.24,1.74 3.27,1.97 3.23,2.20 3.20,2.43 3.08,2.64 2.97,2.84 2.80,3.00 2.63,3.16 2.42,3.26 2.21,3.36 1.97,3.38 1.74,3.40 1.51,3.35 1.29,3.30 1.09,3.18 0.89,3.05 0.74,2.88 0.59,2.70 0.50,2.48 0.42,2.26 0.41,2.03 0.40,1.80 0.46,1.57 0.53,1.35 0.66,1.15 0.79,0.96 0.98,0.82 1.16,0.68 1.39,0.61 1.61,0.54 1.84,0.54 2.08,0.54 2.30,0.62 2.52,0.69 2.70,0.83 2.89,0.98 2.89,0.98 2.89,0.98 3.79,2.19 4.68,3.41 9.20,4.13 13.72,4.84 19.64,6.61 25.56,8.38 31.55,11.03 37.54,13.68 40.94,17.54 44.34,21.40 43.94,25.36 43.54,29.32 40.13,32.18 36.71,35.05 29.30,36.42 21.89,37.80 12.72,37.77 3.56,37.73 -4.49,36.81 -12.55,35.88 -16.87,33.56 -21.19,31.24 -21.50,26.66 -21.81,22.09 -19.61,16.37 -17.42,10.65 -14.07,7.25 -10.73,3.85 -7.56,1.52 -4.39,-0.80 -2.32,-1.17 -0.25,-1.54 -0.06,-1.55 0.11,-1.56 0.30,-1.52 0.49,-1.48 0.66,-1.40 0.83,-1.32 0.97,-1.20 1.12,-1.09 1.24,-0.94 1.35,-0.78 1.42,-0.61 1.50,-0.44 1.53,-0.25 1.56,-0.06 1.55,0.11 1.53,0.30 1.47,0.48 1.41,0.66 1.31,0.82 1.21,0.98 1.08,1.11 0.94,1.24 0.78,1.34 0.62,1.44 0.43,1.49 0.25,1.54 0.25,1.54 L 0.25,1.54 Z"></path>
    </g>
    <g transform="translate(388.36795908691033 691.6645192022092) rotate(0 12.36617640449299 48.87584007490079)"
       stroke="none">
        <path fill="#000000"
              d="M 1.66,-0.18 Q 1.66,-0.18 1.95,2.86 2.24,5.92 2.35,9.64 2.46,13.36 3.17,18.57 3.88,23.78 5.51,31.05 7.15,38.32 9.87,47.83 12.59,57.34 15.10,66.49 17.61,75.63 20.01,81.82 22.40,88.01 23.38,89.82 24.35,91.62 24.58,91.65 24.82,91.67 25.03,91.76 25.24,91.86 25.41,92.01 25.58,92.17 25.69,92.37 25.80,92.58 25.85,92.81 25.89,93.03 25.85,93.26 25.82,93.49 25.71,93.70 25.61,93.91 25.44,94.07 25.27,94.23 25.07,94.33 24.86,94.43 24.63,94.46 24.40,94.49 24.17,94.44 23.94,94.40 23.74,94.28 23.54,94.16 23.39,93.99 23.23,93.81 23.14,93.60 23.06,93.38 23.04,93.15 23.02,92.92 23.08,92.70 23.14,92.47 23.27,92.28 23.40,92.08 23.58,91.94 23.76,91.80 23.98,91.72 24.20,91.64 24.43,91.64 24.66,91.64 24.88,91.71 25.11,91.78 25.29,91.92 25.48,92.05 25.61,92.24 25.75,92.43 25.81,92.66 25.88,92.88 25.87,93.11 25.86,93.34 25.77,93.56 25.69,93.78 25.54,93.96 25.40,94.13 25.20,94.26 25.00,94.38 24.78,94.43 24.55,94.49 24.55,94.49 24.55,94.49 22.22,91.74 19.88,88.99 17.43,82.68 14.98,76.36 12.45,67.23 9.92,58.11 7.16,48.53 4.39,38.95 2.70,31.57 1.00,24.19 0.23,18.83 -0.53,13.48 -0.71,9.87 -0.89,6.26 -1.27,3.22 -1.66,0.18 -1.66,-0.01 -1.66,-0.21 -1.61,-0.41 -1.56,-0.61 -1.46,-0.78 -1.37,-0.96 -1.23,-1.11 -1.09,-1.26 -0.93,-1.37 -0.76,-1.49 -0.57,-1.56 -0.38,-1.63 -0.18,-1.65 0.01,-1.67 0.21,-1.65 0.41,-1.62 0.60,-1.55 0.79,-1.47 0.95,-1.35 1.12,-1.24 1.25,-1.09 1.38,-0.93 1.48,-0.75 1.57,-0.57 1.61,-0.38 1.66,-0.18 1.66,-0.18 L 1.66,-0.18 Z"></path>
    </g>
    <g transform="translate(451.96543773858843 784.7052750074422) rotate(0 -8.832983146066397 31.209873782767943)"
       stroke="none">
        <path fill="#000000"
              d="M 0.93,1.24 Q 0.93,1.24 -1.79,3.25 -4.51,5.25 -9.99,11.09 -15.46,16.93 -20.49,23.78 -25.52,30.63 -28.63,37.18 -31.75,43.73 -33.06,48.47 -34.37,53.21 -34.49,55.42 -34.61,57.62 -32.04,58.54 -29.47,59.45 -23.76,59.90 -18.05,60.35 -11.27,59.55 -4.49,58.76 0.99,56.76 6.48,54.77 10.03,51.67 13.58,48.56 15.03,45.68 16.48,42.79 17.11,40.31 17.74,37.83 17.01,35.30 16.29,32.77 15.36,31.04 14.43,29.31 12.43,27.30 10.42,25.30 8.21,23.41 6.00,21.51 3.71,19.69 1.42,17.87 -0.55,16.43 -2.52,14.99 -4.18,14.25 -5.84,13.51 -6.04,13.36 -6.23,13.21 -6.37,13.01 -6.51,12.81 -6.58,12.57 -6.65,12.34 -6.63,12.09 -6.62,11.85 -6.53,11.62 -6.44,11.39 -6.29,11.20 -6.13,11.01 -5.92,10.88 -5.71,10.76 -5.47,10.70 -5.23,10.65 -4.99,10.67 -4.74,10.70 -4.52,10.80 -4.29,10.90 -4.11,11.07 -3.93,11.23 -3.82,11.45 -3.70,11.67 -3.66,11.91 -3.62,12.15 -3.66,12.39 -3.70,12.64 -3.81,12.85 -3.92,13.07 -4.10,13.24 -4.28,13.41 -4.50,13.52 -4.72,13.62 -4.97,13.65 -5.21,13.68 -5.45,13.63 -5.69,13.58 -5.90,13.45 -6.11,13.32 -6.27,13.14 -6.43,12.95 -6.53,12.73 -6.62,12.50 -6.63,12.25 -6.65,12.01 -6.58,11.77 -6.52,11.53 -6.38,11.33 -6.25,11.12 -6.05,10.97 -5.86,10.82 -5.62,10.74 -5.39,10.67 -5.15,10.66 -4.90,10.66 -4.67,10.74 -4.43,10.82 -4.44,10.82 -4.44,10.82 -2.71,11.84 -0.98,12.86 1.03,14.34 3.05,15.81 5.38,17.66 7.71,19.52 10.01,21.48 12.30,23.45 14.52,25.75 16.74,28.05 17.79,30.08 18.83,32.10 19.56,35.21 20.29,38.32 19.56,41.16 18.83,44.00 17.09,47.25 15.35,50.50 11.39,53.87 7.43,57.23 1.63,59.31 -4.17,61.39 -11.21,62.20 -18.26,63.01 -24.37,62.47 -30.48,61.93 -33.42,60.51 -36.36,59.09 -36.68,55.81 -37.01,52.52 -35.63,47.53 -34.25,42.54 -31.02,35.76 -27.80,28.97 -22.69,21.96 -17.58,14.96 -11.94,8.91 -6.31,2.87 -3.62,0.81 -0.93,-1.24 -0.77,-1.34 -0.61,-1.43 -0.43,-1.48 -0.24,-1.54 -0.06,-1.54 0.12,-1.55 0.31,-1.51 0.49,-1.48 0.66,-1.40 0.83,-1.31 0.98,-1.20 1.12,-1.08 1.24,-0.93 1.35,-0.77 1.42,-0.60 1.50,-0.43 1.53,-0.24 1.56,-0.06 1.54,0.12 1.53,0.31 1.47,0.49 1.41,0.67 1.30,0.83 1.20,0.98 1.07,1.11 0.93,1.24 0.93,1.24 L 0.93,1.24 Z"></path>
    </g>
    <g transform="translate(497.89695009813374 870.6796442958218) rotate(0 45.34264681647417 24.732352808985922)"
       stroke="none">
        <path fill="#000000"
              d="M 1.47,-0.63 Q 1.47,-0.63 2.45,1.75 3.42,4.13 6.12,8.06 8.82,11.99 14.58,16.28 20.34,20.57 29.88,25.80 39.42,31.03 48.20,34.94 56.98,38.86 64.71,41.19 72.45,43.51 77.77,44.85 83.09,46.18 85.37,46.75 87.64,47.32 87.84,47.41 88.04,47.50 88.20,47.64 88.36,47.78 88.46,47.97 88.57,48.16 88.61,48.37 88.65,48.59 88.62,48.80 88.59,49.01 88.50,49.21 88.40,49.40 88.25,49.55 88.09,49.71 87.90,49.80 87.71,49.90 87.49,49.93 87.28,49.95 87.07,49.91 86.85,49.87 86.67,49.77 86.48,49.66 86.33,49.50 86.19,49.34 86.11,49.14 86.02,48.94 86.00,48.73 85.99,48.51 86.04,48.30 86.09,48.09 86.21,47.91 86.32,47.73 86.49,47.59 86.66,47.46 86.86,47.38 87.07,47.31 87.28,47.30 87.50,47.30 87.70,47.36 87.91,47.42 88.09,47.55 88.26,47.68 88.39,47.85 88.51,48.03 88.58,48.23 88.64,48.44 88.63,48.66 88.63,48.87 88.55,49.08 88.48,49.28 88.34,49.45 88.21,49.62 88.03,49.73 87.84,49.85 87.63,49.90 87.42,49.95 87.21,49.93 86.99,49.92 86.99,49.92 86.99,49.92 84.72,49.35 82.44,48.79 77.05,47.45 71.67,46.11 63.77,43.74 55.87,41.37 46.98,37.42 38.09,33.47 28.36,28.16 18.64,22.85 12.54,18.27 6.44,13.70 3.54,9.52 0.63,5.34 -0.41,2.98 -1.47,0.63 -1.52,0.44 -1.58,0.26 -1.58,0.06 -1.59,-0.12 -1.55,-0.31 -1.51,-0.50 -1.43,-0.67 -1.35,-0.85 -1.23,-1.00 -1.11,-1.15 -0.95,-1.26 -0.80,-1.38 -0.62,-1.46 -0.44,-1.53 -0.25,-1.56 -0.06,-1.59 0.12,-1.58 0.31,-1.56 0.50,-1.50 0.68,-1.44 0.84,-1.34 1.01,-1.24 1.14,-1.10 1.27,-0.96 1.37,-0.79 1.47,-0.63 1.47,-0.63 L 1.47,-0.63 Z"></path>
    </g>
    <g transform="translate(621.5587141430635 873.035106468106) rotate(0 5.888655430710855 29.44327715355473)"
       stroke="none">
        <path fill="#000000"
              d="M 0.74,1.37 Q 0.74,1.37 -2.97,3.36 -6.70,5.35 -9.79,9.08 -12.89,12.80 -15.58,17.40 -18.27,22.00 -19.73,26.57 -21.18,31.13 -21.49,35.25 -21.80,39.37 -19.00,43.24 -16.20,47.11 -11.44,49.74 -6.69,52.38 -1.03,53.85 4.62,55.32 11.59,54.27 18.56,53.22 23.12,51.17 27.67,49.11 29.80,46.05 31.92,42.99 32.48,39.50 33.05,36.00 32.00,32.31 30.94,28.61 28.56,25.44 26.17,22.26 23.51,19.91 20.85,17.56 19.05,16.21 17.25,14.87 15.04,13.52 12.82,12.17 12.63,12.03 12.44,11.89 12.29,11.70 12.15,11.51 12.08,11.28 12.01,11.06 12.01,10.82 12.02,10.58 12.10,10.36 12.18,10.13 12.32,9.95 12.47,9.76 12.67,9.63 12.87,9.50 13.10,9.44 13.33,9.38 13.56,9.40 13.80,9.41 14.02,9.50 14.24,9.60 14.42,9.75 14.60,9.91 14.72,10.11 14.84,10.32 14.88,10.55 14.93,10.79 14.90,11.02 14.87,11.26 14.77,11.47 14.67,11.69 14.50,11.86 14.33,12.03 14.12,12.13 13.91,12.24 13.67,12.28 13.44,12.31 13.21,12.27 12.97,12.23 12.76,12.11 12.55,12.00 12.39,11.82 12.23,11.65 12.14,11.43 12.04,11.21 12.02,10.98 12.00,10.74 12.05,10.51 12.11,10.28 12.23,10.07 12.36,9.87 12.54,9.72 12.73,9.57 12.95,9.49 13.17,9.40 13.41,9.39 13.65,9.38 13.87,9.45 14.10,9.52 14.10,9.52 14.10,9.52 16.46,11.14 18.82,12.76 20.71,14.18 22.60,15.59 25.44,18.14 28.28,20.70 30.87,24.28 33.46,27.87 34.55,32.11 35.64,36.35 34.87,40.39 34.11,44.42 31.50,47.92 28.90,51.41 23.93,53.63 18.97,55.84 11.50,56.87 4.03,57.90 -1.97,56.31 -7.98,54.72 -13.16,51.72 -18.33,48.73 -21.37,44.14 -24.41,39.56 -24.12,34.93 -23.82,30.31 -22.26,25.45 -20.71,20.60 -17.91,15.78 -15.11,10.95 -11.65,6.86 -8.19,2.77 -4.47,0.70 -0.74,-1.37 -0.57,-1.44 -0.39,-1.51 -0.21,-1.53 -0.02,-1.56 0.16,-1.54 0.34,-1.52 0.52,-1.45 0.70,-1.39 0.86,-1.29 1.01,-1.18 1.14,-1.04 1.27,-0.90 1.36,-0.74 1.45,-0.57 1.49,-0.39 1.54,-0.21 1.55,-0.02 1.55,0.16 1.51,0.34 1.46,0.53 1.38,0.69 1.29,0.86 1.17,1.00 1.05,1.15 0.90,1.26 0.74,1.37 0.74,1.37 L 0.74,1.37 Z"></path>
    </g>
    <g transform="translate(722.8435875512916 752.9065356816031) rotate(0 -25.910083895128196 16.488235205990577)"
       stroke="none">
        <path fill="#000000"
              d="M 1.59,0.88 Q 1.59,0.88 -0.16,3.89 -1.91,6.91 -5.09,11.30 -8.27,15.69 -12.04,19.95 -15.81,24.21 -20.61,27.14 -25.41,30.07 -30.28,31.33 -35.14,32.58 -38.90,33.09 -42.66,33.60 -45.03,33.47 -47.40,33.34 -49.23,33.36 -51.07,33.39 -51.32,33.34 -51.56,33.29 -51.78,33.16 -52.00,33.03 -52.17,32.84 -52.33,32.65 -52.43,32.42 -52.53,32.18 -52.54,31.93 -52.56,31.68 -52.50,31.43 -52.43,31.19 -52.29,30.98 -52.15,30.77 -51.95,30.61 -51.75,30.46 -51.52,30.37 -51.28,30.29 -51.03,30.29 -50.77,30.28 -50.53,30.36 -50.29,30.44 -50.09,30.59 -49.88,30.74 -49.74,30.94 -49.60,31.15 -49.52,31.39 -49.45,31.64 -49.46,31.89 -49.47,32.14 -49.56,32.38 -49.66,32.61 -49.82,32.81 -49.98,33.00 -50.19,33.14 -50.41,33.27 -50.65,33.33 -50.90,33.39 -51.15,33.36 -51.40,33.34 -51.63,33.23 -51.86,33.13 -52.05,32.96 -52.24,32.79 -52.36,32.57 -52.48,32.35 -52.52,32.10 -52.57,31.85 -52.53,31.60 -52.49,31.35 -52.38,31.12 -52.26,30.90 -52.08,30.72 -51.90,30.55 -51.67,30.44 -51.44,30.33 -51.19,30.30 -50.94,30.27 -50.94,30.27 -50.94,30.27 -49.10,30.44 -47.25,30.61 -45.14,30.73 -43.03,30.85 -39.44,30.34 -35.84,29.83 -31.37,28.70 -26.89,27.57 -22.47,24.88 -18.05,22.20 -14.45,18.03 -10.85,13.86 -7.85,9.56 -4.85,5.27 -3.22,2.19 -1.59,-0.88 -1.46,-1.06 -1.33,-1.23 -1.16,-1.38 -0.99,-1.52 -0.80,-1.61 -0.60,-1.71 -0.39,-1.76 -0.17,-1.81 0.04,-1.80 0.26,-1.80 0.47,-1.74 0.68,-1.68 0.87,-1.57 1.06,-1.47 1.23,-1.32 1.39,-1.17 1.51,-0.99 1.63,-0.80 1.70,-0.60 1.77,-0.39 1.79,-0.17 1.82,0.04 1.78,0.26 1.75,0.47 1.67,0.68 1.59,0.88 1.59,0.88 L 1.59,0.88 Z"></path>
    </g>
    <g transform="translate(626.2696384876322 769.3947708875937) rotate(0 11.188445318350887 17.665966292132794)"
       stroke="none">
        <path fill="#000000"
              d="M 1.24,0.93 Q 1.24,0.93 -0.80,3.62 -2.86,6.31 -5.43,9.80 -7.99,13.29 -9.35,16.98 -10.70,20.67 -11.29,23.52 -11.88,26.36 -11.24,28.25 -10.59,30.13 -7.83,31.50 -5.06,32.87 -0.31,33.16 4.44,33.46 10.08,31.94 15.73,30.43 21.45,27.47 27.18,24.51 29.49,21.69 31.79,18.88 32.75,16.46 33.70,14.04 33.45,11.87 33.19,9.71 31.83,7.57 30.47,5.42 28.97,4.22 27.48,3.02 26.48,2.62 25.49,2.22 24.35,1.74 23.21,1.26 20.89,1.13 18.57,1.00 16.29,0.86 14.01,0.72 12.35,0.73 10.68,0.74 9.30,0.79 7.92,0.85 5.45,1.21 2.98,1.57 2.64,1.58 2.30,1.59 1.97,1.49 1.64,1.39 1.36,1.19 1.09,0.99 0.89,0.72 0.69,0.44 0.59,0.11 0.49,-0.21 0.49,-0.55 0.50,-0.89 0.62,-1.21 0.74,-1.53 0.95,-1.80 1.17,-2.07 1.45,-2.25 1.74,-2.44 2.07,-2.52 2.41,-2.60 2.75,-2.57 3.09,-2.55 3.40,-2.41 3.72,-2.28 3.97,-2.05 4.23,-1.82 4.40,-1.52 4.56,-1.22 4.63,-0.89 4.69,-0.55 4.65,-0.21 4.60,0.12 4.45,0.42 4.30,0.73 4.06,0.97 3.81,1.21 3.51,1.37 3.20,1.52 2.86,1.56 2.52,1.61 2.19,1.55 1.85,1.48 1.55,1.31 1.26,1.15 1.03,0.89 0.80,0.64 0.66,0.32 0.53,0.01 0.50,-0.32 0.47,-0.66 0.55,-1.00 0.64,-1.33 0.82,-1.62 1.01,-1.90 1.27,-2.12 1.54,-2.33 1.86,-2.45 2.18,-2.57 2.18,-2.57 2.18,-2.57 5.06,-2.87 7.94,-3.18 9.34,-3.11 10.73,-3.04 12.40,-2.99 14.08,-2.95 16.46,-3.00 18.85,-3.04 20.49,-2.88 22.13,-2.71 23.48,-2.30 24.83,-1.89 25.92,-1.20 27.02,-0.51 28.09,0.24 29.16,0.99 30.93,2.51 32.69,4.03 34.24,6.69 35.78,9.36 35.97,12.13 36.17,14.89 35.00,17.72 33.84,20.54 31.15,23.68 28.46,26.82 22.44,29.91 16.42,33.00 10.35,34.56 4.29,36.12 -0.98,35.69 -6.25,35.26 -9.54,33.33 -12.84,31.40 -13.71,28.70 -14.58,26.00 -13.96,22.85 -13.34,19.70 -11.85,15.66 -10.35,11.62 -7.80,8.07 -5.25,4.52 -3.25,1.79 -1.24,-0.93 -1.11,-1.07 -0.98,-1.20 -0.83,-1.30 -0.67,-1.41 -0.49,-1.47 -0.31,-1.53 -0.12,-1.54 0.06,-1.56 0.24,-1.53 0.43,-1.50 0.60,-1.42 0.77,-1.35 0.93,-1.24 1.08,-1.12 1.20,-0.98 1.31,-0.83 1.40,-0.66 1.48,-0.49 1.51,-0.31 1.55,-0.12 1.54,0.06 1.54,0.24 1.48,0.43 1.43,0.61 1.34,0.77 1.24,0.93 1.24,0.93 L 1.24,0.93 Z"></path>
    </g>
    <g transform="translate(627.4473695737745 824.7481319362764) rotate(0 -1.766596629213268 14.132773033706258)"
       stroke="none">
        <path fill="#000000"
              d="M 2.26,0 Q 2.26,0 2.14,3.04 2.01,6.09 1.57,8.86 1.13,11.62 0.57,14.15 0.01,16.67 -0.14,18.35 -0.30,20.02 -0.25,21.83 -0.19,23.65 -0.71,26.03 -1.22,28.40 -1.39,28.72 -1.57,29.03 -1.83,29.27 -2.10,29.52 -2.43,29.66 -2.76,29.80 -3.12,29.84 -3.47,29.87 -3.82,29.79 -4.17,29.70 -4.48,29.51 -4.78,29.32 -5.01,29.04 -5.23,28.76 -5.36,28.43 -5.49,28.09 -5.50,27.73 -5.51,27.37 -5.41,27.03 -5.31,26.68 -5.10,26.39 -4.89,26.10 -4.60,25.89 -4.31,25.67 -3.97,25.57 -3.63,25.46 -3.27,25.46 -2.91,25.47 -2.57,25.59 -2.23,25.71 -1.95,25.94 -1.67,26.16 -1.47,26.46 -1.28,26.76 -1.19,27.11 -1.10,27.46 -1.13,27.81 -1.15,28.17 -1.29,28.50 -1.43,28.83 -1.67,29.10 -1.91,29.37 -2.22,29.55 -2.53,29.73 -2.88,29.80 -3.23,29.87 -3.59,29.83 -3.95,29.78 -4.27,29.63 -4.59,29.47 -4.85,29.22 -5.10,28.96 -5.27,28.64 -5.43,28.32 -5.48,27.97 -5.53,27.61 -5.47,27.26 -5.40,26.91 -5.40,26.91 -5.40,26.91 -4.78,24.36 -4.16,21.80 -3.97,20.71 -3.79,19.61 -3.54,17.82 -3.30,16.03 -2.89,13.59 -2.49,11.16 -2.25,8.62 -2.01,6.09 -2.14,3.04 -2.26,0 -2.23,-0.27 -2.20,-0.54 -2.10,-0.79 -2.00,-1.05 -1.85,-1.27 -1.69,-1.50 -1.49,-1.68 -1.28,-1.86 -1.04,-1.99 -0.80,-2.11 -0.53,-2.18 -0.27,-2.25 0.00,-2.25 0.27,-2.25 0.53,-2.18 0.80,-2.11 1.04,-1.99 1.28,-1.86 1.49,-1.68 1.69,-1.50 1.85,-1.27 2.00,-1.05 2.10,-0.79 2.20,-0.54 2.23,-0.27 2.26,0.00 2.26,0.00 L 2.26,0 Z"></path>
    </g>
</svg>